<svg xmlns="http://www.w3.org/2000/svg" width="19.5" height="19.5" viewBox="0 0 19.5 19.5">
  <g id="noun-approval-1231259" transform="translate(-102.236 -32.232)">
    <path id="Path_8737" data-name="Path 8737" d="M102.84,43.026l.9,1.175-.2,1.431a1.719,1.719,0,0,0,1.074,1.831l1.347.533.542,1.354h0a1.719,1.719,0,0,0,1.831,1.074l1.427-.2,1.175.9a1.719,1.719,0,0,0,2.091,0l1.175-.9,1.427.2a1.719,1.719,0,0,0,1.831-1.074L118,48l1.354-.542h0a1.719,1.719,0,0,0,1.074-1.831l-.2-1.427.9-1.175a1.719,1.719,0,0,0,0-2.091l-.9-1.175.191-1.429a1.719,1.719,0,0,0-1.074-1.831L118,35.963l-.542-1.354h0a1.719,1.719,0,0,0-1.831-1.074l-1.427.2-1.173-.9a1.719,1.719,0,0,0-2.091,0l-1.175.9-1.431-.2a1.719,1.719,0,0,0-1.831,1.074l-.533,1.347-1.354.542h0a1.719,1.719,0,0,0-1.074,1.831l.2,1.427-.9,1.173a1.719,1.719,0,0,0,0,2.091Zm2.267-2.222a1.72,1.72,0,0,0,.337-1.289l-.2-1.427,1.364-.533a1.719,1.719,0,0,0,.948-.948l.542-1.354,1.427.2a1.733,1.733,0,0,0,1.289-.337l1.167-.913,1.175.9a1.72,1.72,0,0,0,1.289.337l1.425-.2.535,1.364a1.719,1.719,0,0,0,.948.948l1.354.542-.2,1.425a1.719,1.719,0,0,0,.337,1.289l.909,1.169-.9,1.175a1.719,1.719,0,0,0-.34,1.289l.2,1.427-1.362.531a1.719,1.719,0,0,0-.948.95l-.542,1.354-1.427-.2a1.733,1.733,0,0,0-1.289.337l-1.167.911-1.175-.9a1.732,1.732,0,0,0-1.049-.354,1.714,1.714,0,0,0-.232.015l-1.427.2-.542-1.362a1.718,1.718,0,0,0-.948-.948l-1.354-.542.2-1.425a1.719,1.719,0,0,0-.337-1.289l-.909-1.169Z" transform="translate(0)" fill="#ff9b15" stroke="#000" stroke-width="0.5"/>
    <path id="Path_8738" data-name="Path 8738" d="M247.789,202.911a.844.844,0,0,0,1.173-.1l3.946-4.579a.844.844,0,1,0-1.279-1.1l-3.41,3.952-1.688-1.378a.844.844,0,0,0-1.063,1.308Z" transform="translate(-137.153 -157.977)" fill="#ff9b15" stroke="#000" stroke-width="0.5"/>
  </g>
</svg>
