<svg xmlns="http://www.w3.org/2000/svg" xmlns:xlink="http://www.w3.org/1999/xlink" width="161.155" height="41.062" viewBox="0 0 161.155 41.062">
  <defs>
    <linearGradient id="linear-gradient" x1="0.5" x2="0.5" y2="1" gradientUnits="objectBoundingBox">
      <stop offset="0" stop-color="#ff9b14"/>
      <stop offset="1" stop-color="#ec831d"/>
    </linearGradient>
    <linearGradient id="linear-gradient-2" x1="0.5" x2="0.5" y2="1" gradientUnits="objectBoundingBox">
      <stop offset="0" stop-color="#ff9c14"/>
      <stop offset="1" stop-color="#ff8a20"/>
    </linearGradient>
    <linearGradient id="linear-gradient-4" x1="0.5" x2="0.5" y2="1" gradientUnits="objectBoundingBox">
      <stop offset="0" stop-color="#ff9b14"/>
      <stop offset="1" stop-color="#ff8a22"/>
    </linearGradient>
    <linearGradient id="linear-gradient-5" x1="0.5" x2="0.5" y2="1" gradientUnits="objectBoundingBox">
      <stop offset="0" stop-color="#ff9a14"/>
      <stop offset="1" stop-color="#ff8a21"/>
    </linearGradient>
    <clipPath id="clip-path">
      <rect id="Rectangle_2169" data-name="Rectangle 2169" width="14.255" height="18.346" fill="url(#linear-gradient)"/>
    </clipPath>
    <clipPath id="clip-path-2">
      <rect id="Rectangle_2170" data-name="Rectangle 2170" width="12.061" height="13.826" fill="url(#linear-gradient-2)"/>
    </clipPath>
    <clipPath id="clip-path-3">
      <rect id="Rectangle_2171" data-name="Rectangle 2171" width="17.268" height="18.198" fill="url(#linear-gradient)"/>
    </clipPath>
  </defs>
  <g id="Group_1854" data-name="Group 1854" transform="translate(-56.013 -13.866)">
    <g id="Group_1852" data-name="Group 1852" transform="translate(0.316 -400)">
      <path id="Path_1" data-name="Path 1" d="M18.182-34.75v18.2H15.218v-7.96h-8.5v7.96H3.75v-18.2H6.715v7.8h8.5v-7.8Z" transform="translate(94.876 457.75)" fill="url(#linear-gradient-4)"/>
      <path id="Path_2" data-name="Path 2" d="M1.85-21.065A7.5,7.5,0,0,1,2.7-24.68,6.219,6.219,0,0,1,5.01-27.127,6.193,6.193,0,0,1,8.244-28a5.915,5.915,0,0,1,2.791.627,5.664,5.664,0,0,1,1.906,1.562v-1.967h2.828v13.55H12.941v-2.017A5.568,5.568,0,0,1,11-14.646a5.988,5.988,0,0,1-2.8.639A5.958,5.958,0,0,1,5-14.9a6.366,6.366,0,0,1-2.3-2.508A7.717,7.717,0,0,1,1.85-21.065Zm11.091.049a4.907,4.907,0,0,0-.578-2.435,4.057,4.057,0,0,0-1.512-1.574,3.957,3.957,0,0,0-2.017-.541,4.028,4.028,0,0,0-2.017.529,3.987,3.987,0,0,0-1.512,1.549,4.837,4.837,0,0,0-.578,2.422,5.048,5.048,0,0,0,.578,2.459A4.077,4.077,0,0,0,6.83-16.995a3.911,3.911,0,0,0,2,.553,3.957,3.957,0,0,0,2.017-.541,4.036,4.036,0,0,0,1.512-1.586A4.977,4.977,0,0,0,12.941-21.016Z" transform="translate(112.318 455.205)" fill="url(#linear-gradient-5)"/>
      <path id="Path_3" data-name="Path 3" d="M7.906-14.007a6.827,6.827,0,0,1-2.865-.578,5.032,5.032,0,0,1-2-1.574,3.923,3.923,0,0,1-.787-2.226h2.9a1.979,1.979,0,0,0,.824,1.439,2.991,2.991,0,0,0,1.881.578,3.169,3.169,0,0,0,1.832-.455,1.373,1.373,0,0,0,.652-1.168,1.2,1.2,0,0,0-.725-1.131,13.6,13.6,0,0,0-2.3-.812,22.193,22.193,0,0,1-2.484-.812,4.354,4.354,0,0,1-1.66-1.205,3.158,3.158,0,0,1-.7-2.14,3.336,3.336,0,0,1,.639-1.98,4.258,4.258,0,0,1,1.832-1.414A6.845,6.845,0,0,1,7.685-28a5.662,5.662,0,0,1,3.726,1.168,4.194,4.194,0,0,1,1.512,3.185h-2.8A2,2,0,0,0,9.382-25.1a2.759,2.759,0,0,0-1.8-.541,2.914,2.914,0,0,0-1.7.418,1.294,1.294,0,0,0-.59,1.107,1.2,1.2,0,0,0,.393.91,2.8,2.8,0,0,0,.959.578q.566.209,1.672.529a18.191,18.191,0,0,1,2.422.8,4.51,4.51,0,0,1,1.635,1.193,3.156,3.156,0,0,1,.713,2.09,3.506,3.506,0,0,1-.639,2.066,4.239,4.239,0,0,1-1.808,1.426A6.735,6.735,0,0,1,7.906-14.007Z" transform="translate(126.947 455.205)" fill="url(#linear-gradient-2)"/>
      <path id="Path_4" data-name="Path 4" d="M10.759-32.573a5.683,5.683,0,0,1,2.767.664,4.726,4.726,0,0,1,1.918,1.967,6.565,6.565,0,0,1,.7,3.148V-18.8H13.366v-7.574a3.933,3.933,0,0,0-.91-2.791,3.238,3.238,0,0,0-2.484-.971,3.278,3.278,0,0,0-2.5.971,3.9,3.9,0,0,0-.922,2.791V-18.8H3.75V-37h2.8v6.222a4.7,4.7,0,0,1,1.808-1.328A6.043,6.043,0,0,1,10.759-32.573Z" transform="translate(137.445 460)" fill="url(#linear-gradient-2)"/>
      <path id="Path_6" data-name="Path 6" d="M6.554-34.75v13.993H3.75V-34.75Z" transform="translate(181.431 461.955)" fill="url(#linear-gradient)"/>
      <path id="Path_7" data-name="Path 7" d="M10.587-28a6.077,6.077,0,0,1,2.865.664,4.722,4.722,0,0,1,1.98,1.967,6.472,6.472,0,0,1,.713,3.148v7.992H13.366V-21.8a3.933,3.933,0,0,0-.91-2.791,3.238,3.238,0,0,0-2.484-.971,3.278,3.278,0,0,0-2.5.971A3.9,3.9,0,0,0,6.554-21.8v7.574H3.75v-13.55h2.8v1.549a4.641,4.641,0,0,1,1.758-1.3A5.621,5.621,0,0,1,10.587-28Z" transform="translate(185.344 455.205)" fill="url(#linear-gradient)"/>
      <g id="Group_2" data-name="Group 2" transform="translate(202.598 427.205)">
        <g id="Group_1" data-name="Group 1" transform="translate(0 0)" clip-path="url(#clip-path)">
          <path id="Path_10" data-name="Path 10" d="M6.589,0A6.435,6.435,0,0,1,9.465.618a5.474,5.474,0,0,1,1.961,1.537V.219h2.811s.083,10.04-.1,12.295a6.675,6.675,0,0,1-3.112,4.669,7.943,7.943,0,0,1-4.979,1.112,7.629,7.629,0,0,1-4.563-2.63l2.084-1.682a4.412,4.412,0,0,0,3.847,1.673,4.8,4.8,0,0,0,4.105-3.949A5.88,5.88,0,0,1,9.44,13.133a6.26,6.26,0,0,1-2.731.639h-.12a6.466,6.466,0,0,1-3.334-.885A6.359,6.359,0,0,1,.876,10.42,7.323,7.323,0,0,1,0,6.826,7.118,7.118,0,0,1,.876,3.268,6.251,6.251,0,0,1,3.258.858,6.611,6.611,0,0,1,6.589,0m4.876,6.874a4.442,4.442,0,0,0-.632-2.4A4.217,4.217,0,0,0,9.179,2.928a4.7,4.7,0,0,0-2.2-.533,4.8,4.8,0,0,0-2.205.52A4.153,4.153,0,0,0,3.116,4.44a4.377,4.377,0,0,0-.63,2.386,4.567,4.567,0,0,0,.63,2.421,4.225,4.225,0,0,0,1.665,1.585,4.638,4.638,0,0,0,2.191.544,4.7,4.7,0,0,0,2.205-.533,4.193,4.193,0,0,0,1.654-1.561,4.509,4.509,0,0,0,.633-2.409" transform="translate(0 0)" fill="url(#linear-gradient)"/>
        </g>
      </g>
      <g id="Group_4" data-name="Group 4" transform="translate(154.742 427.373)">
        <g id="Group_3" data-name="Group 3" transform="translate(0 0)" clip-path="url(#clip-path-2)">
          <path id="Path_13" data-name="Path 13" d="M0,6.812A6.755,6.755,0,0,1,3.242.972,7.587,7.587,0,0,1,6.783,0a7.291,7.291,0,0,1,5.277,2.152L10.186,3.865A4.38,4.38,0,0,0,6.337,2.531a4.421,4.421,0,0,0,0,8.765,4.183,4.183,0,0,0,3.682-1.228L11.9,11.712a6.979,6.979,0,0,1-4.976,2.113A8.309,8.309,0,0,1,3.2,12.753,6.81,6.81,0,0,1,0,6.812" transform="translate(0 0.001)" fill="url(#linear-gradient-2)"/>
        </g>
      </g>
      <g id="Group_6" data-name="Group 6" transform="translate(166.803 423)">
        <g id="Group_5" data-name="Group 5" clip-path="url(#clip-path-3)">
          <path id="Path_14" data-name="Path 14" d="M17.268,10.28,8.634,2.6,5.553,5.342V0h-2.7l0,7.745L0,10.28l1.781,2,1.071-.953,0,6.869h2.7V10.624a10.465,10.465,0,0,1,.025-1.718L8.634,6.189,12.369,9.51c0,.3,0,.668,0,1.114V18.2h2.519l.009-6.443.593.527Z" fill="url(#linear-gradient)"/>
        </g>
      </g>
    </g>
    <g id="Group_1853" data-name="Group 1853" transform="translate(235.622 -273.112) rotate(45)">
      <rect id="Rectangle_1953" data-name="Rectangle 1953" width="21.117" height="6.599" rx="3.299" transform="translate(99.678 316.729)" fill="#ff9b15"/>
      <rect id="Rectangle_1955" data-name="Rectangle 1955" width="21.117" height="6.599" rx="3.299" transform="translate(89.12 336.526)" fill="#ff9b15"/>
      <rect id="Rectangle_1956" data-name="Rectangle 1956" width="21.117" height="6.599" rx="3.299" transform="translate(118.155 324.648) rotate(90)" fill="#ff9b15"/>
      <rect id="Rectangle_1957" data-name="Rectangle 1957" width="21.117" height="6.599" rx="3.299" transform="translate(98.359 314.09) rotate(90)" fill="#ff9b15"/>
      <circle id="Ellipse_313" data-name="Ellipse 313" cx="3.959" cy="3.959" r="3.959" transform="translate(100.919 325.909)" fill="#ff9b15"/>
    </g>
  </g>
</svg>
