<svg id="noun-project-3244926" xmlns="http://www.w3.org/2000/svg" width="19.975" height="15.985" viewBox="0 0 19.975 15.985">
  <path id="Path_8722" data-name="Path 8722" d="M210.853,87.5a.935.935,0,0,0-.6.213.677.677,0,0,0-.25.514V99.852a.677.677,0,0,0,.25.514.935.935,0,0,0,.6.213h15.362a.935.935,0,0,0,.6-.213.677.677,0,0,0,.25-.514V91.133a.677.677,0,0,0-.25-.514.935.935,0,0,0-.6-.213h-7.777l-1.725-2.543a.89.89,0,0,0-.738-.363Zm.853,1.453h3.774l1.725,2.543a.89.89,0,0,0,.739.363h7.417v7.266H211.707Z" transform="translate(-207.094 -87.5)" fill="#ff9b15"/>
  <path id="Path_8723" data-name="Path 8723" d="M140.727,157.5a.727.727,0,0,0-.727.727v11.626a.727.727,0,0,0,.727.727h13.079a.727.727,0,1,0,0-1.453H141.453v-10.9A.727.727,0,0,0,140.727,157.5Z" transform="translate(-140 -154.594)" fill="#ff9b15"/>
</svg>
