
<svg id="call_black_24dp" xmlns="http://www.w3.org/2000/svg" width="52.428" height="52.428" viewBox="0 0 52.428 52.428">
  <path id="Path_4" data-name="Path 4" d="M0,0H52.428V52.428H0Z" fill="none"/>
  <path id="Path_5" data-name="Path 5" d="M40.135,30.027A24.981,24.981,0,0,1,32.428,28.8a2.134,2.134,0,0,0-2.2.524l-3.427,4.3A33.147,33.147,0,0,1,11.754,18.718l4.257-3.624a2.228,2.228,0,0,0,.524-2.227,24.347,24.347,0,0,1-1.223-7.706A2.18,2.18,0,0,0,13.151,3H5.6C4.419,3,3,3.524,3,5.161A37.445,37.445,0,0,0,40.135,42.3c1.55,0,2.161-1.375,2.161-2.576V32.188A2.18,2.18,0,0,0,40.135,30.027Z" transform="translate(3.566 3.566)"/>
</svg>
