<svg id="call_black_24dp_1_" data-name="call_black_24dp (1)" xmlns="http://www.w3.org/2000/svg" width="35.963" height="35.963" viewBox="0 0 35.963 35.963">
  <path id="Path_14" data-name="Path 14" d="M0,0H35.963V35.963H0Z" fill="none"/>
  <path id="Path_15" data-name="Path 15" d="M28.489,21.551a17.147,17.147,0,0,1-5.29-.839,1.464,1.464,0,0,0-1.513.36l-2.353,2.952A22.752,22.752,0,0,1,9.009,13.789L11.931,11.3a1.529,1.529,0,0,0,.36-1.528,16.712,16.712,0,0,1-.839-5.29A1.5,1.5,0,0,0,9.968,3H4.783C3.974,3,3,3.36,3,4.483A25.7,25.7,0,0,0,28.489,29.972,1.572,1.572,0,0,0,29.972,28.2v-5.17a1.5,1.5,0,0,0-1.483-1.483Z" transform="translate(1.495 1.495)"/>
</svg>
