
<svg xmlns="http://www.w3.org/2000/svg" width="119" height="59" viewBox="0 0 119 59">
  <g id="Group_37" data-name="Group 37" transform="translate(-525 -1555)">
    <g id="Group_36" data-name="Group 36">
      <rect id="Rectangle_58" data-name="Rectangle 58" width="102" height="15" transform="translate(533 1559)" fill="#fd8524"/>
      <rect id="Rectangle_59" data-name="Rectangle 59" width="102" height="15" transform="translate(533 1577)" fill="#fd8524"/>
      <rect id="Rectangle_60" data-name="Rectangle 60" width="102" height="15" transform="translate(533 1595)" fill="#fd8524"/>
      <g id="Group_31" data-name="Group 31" transform="translate(-2)">
        <circle id="Ellipse_2" data-name="Ellipse 2" cx="3" cy="3" r="3" transform="translate(539 1564)" fill="#fff"/>
        <circle id="Ellipse_8" data-name="Ellipse 8" cx="3" cy="3" r="3" transform="translate(571 1564)" fill="#fff"/>
        <circle id="Ellipse_12" data-name="Ellipse 12" cx="3" cy="3" r="3" transform="translate(603 1564)" fill="#fff"/>
        <circle id="Ellipse_5" data-name="Ellipse 5" cx="3" cy="3" r="3" transform="translate(555 1564)" fill="#fff"/>
        <circle id="Ellipse_7" data-name="Ellipse 7" cx="3" cy="3" r="3" transform="translate(587 1564)" fill="#fff"/>
        <circle id="Ellipse_11" data-name="Ellipse 11" cx="3" cy="3" r="3" transform="translate(619 1564)" fill="#fff"/>
        <circle id="Ellipse_3" data-name="Ellipse 3" cx="3" cy="3" r="3" transform="translate(547 1564)" fill="#fff"/>
        <circle id="Ellipse_9" data-name="Ellipse 9" cx="3" cy="3" r="3" transform="translate(579 1564)" fill="#fff"/>
        <circle id="Ellipse_13" data-name="Ellipse 13" cx="3" cy="3" r="3" transform="translate(611 1564)" fill="#fff"/>
        <circle id="Ellipse_4" data-name="Ellipse 4" cx="3" cy="3" r="3" transform="translate(563 1564)" fill="#fff"/>
        <circle id="Ellipse_6" data-name="Ellipse 6" cx="3" cy="3" r="3" transform="translate(595 1564)" fill="#fff"/>
        <circle id="Ellipse_10" data-name="Ellipse 10" cx="3" cy="3" r="3" transform="translate(627 1564)" fill="#fff"/>
      </g>
      <g id="Group_32" data-name="Group 32" transform="translate(-2 18)">
        <circle id="Ellipse_2-2" data-name="Ellipse 2" cx="3" cy="3" r="3" transform="translate(539 1564)" fill="#fff"/>
        <circle id="Ellipse_8-2" data-name="Ellipse 8" cx="3" cy="3" r="3" transform="translate(571 1564)" fill="#fff"/>
        <circle id="Ellipse_12-2" data-name="Ellipse 12" cx="3" cy="3" r="3" transform="translate(603 1564)" fill="#fff"/>
        <circle id="Ellipse_5-2" data-name="Ellipse 5" cx="3" cy="3" r="3" transform="translate(555 1564)" fill="#fff"/>
        <circle id="Ellipse_7-2" data-name="Ellipse 7" cx="3" cy="3" r="3" transform="translate(587 1564)" fill="#fff"/>
        <circle id="Ellipse_11-2" data-name="Ellipse 11" cx="3" cy="3" r="3" transform="translate(619 1564)" fill="#fff"/>
        <circle id="Ellipse_3-2" data-name="Ellipse 3" cx="3" cy="3" r="3" transform="translate(547 1564)" fill="#fff"/>
        <circle id="Ellipse_9-2" data-name="Ellipse 9" cx="3" cy="3" r="3" transform="translate(579 1564)" fill="#fff"/>
        <circle id="Ellipse_13-2" data-name="Ellipse 13" cx="3" cy="3" r="3" transform="translate(611 1564)" fill="#fff"/>
        <circle id="Ellipse_4-2" data-name="Ellipse 4" cx="3" cy="3" r="3" transform="translate(563 1564)" fill="#fff"/>
        <circle id="Ellipse_6-2" data-name="Ellipse 6" cx="3" cy="3" r="3" transform="translate(595 1564)" fill="#fff"/>
        <circle id="Ellipse_10-2" data-name="Ellipse 10" cx="3" cy="3" r="3" transform="translate(627 1564)" fill="#fff"/>
      </g>
      <g id="Group_33" data-name="Group 33" transform="translate(-2 36)">
        <circle id="Ellipse_2-3" data-name="Ellipse 2" cx="3" cy="3" r="3" transform="translate(539 1564)" fill="#fff"/>
        <circle id="Ellipse_8-3" data-name="Ellipse 8" cx="3" cy="3" r="3" transform="translate(571 1564)" fill="#fff"/>
        <circle id="Ellipse_12-3" data-name="Ellipse 12" cx="3" cy="3" r="3" transform="translate(603 1564)" fill="#fff"/>
        <circle id="Ellipse_5-3" data-name="Ellipse 5" cx="3" cy="3" r="3" transform="translate(555 1564)" fill="#fff"/>
        <circle id="Ellipse_7-3" data-name="Ellipse 7" cx="3" cy="3" r="3" transform="translate(587 1564)" fill="#fff"/>
        <circle id="Ellipse_11-3" data-name="Ellipse 11" cx="3" cy="3" r="3" transform="translate(619 1564)" fill="#fff"/>
        <circle id="Ellipse_3-3" data-name="Ellipse 3" cx="3" cy="3" r="3" transform="translate(547 1564)" fill="#fff"/>
        <circle id="Ellipse_9-3" data-name="Ellipse 9" cx="3" cy="3" r="3" transform="translate(579 1564)" fill="#fff"/>
        <circle id="Ellipse_13-3" data-name="Ellipse 13" cx="3" cy="3" r="3" transform="translate(611 1564)" fill="#fff"/>
        <circle id="Ellipse_4-3" data-name="Ellipse 4" cx="3" cy="3" r="3" transform="translate(563 1564)" fill="#fff"/>
        <circle id="Ellipse_6-3" data-name="Ellipse 6" cx="3" cy="3" r="3" transform="translate(595 1564)" fill="#fff"/>
        <circle id="Ellipse_10-3" data-name="Ellipse 10" cx="3" cy="3" r="3" transform="translate(627 1564)" fill="#fff"/>
      </g>
      <rect id="Rectangle_61" data-name="Rectangle 61" width="119" height="4" rx="2" transform="translate(525 1555)" fill="#fd8524"/>
      <rect id="Rectangle_62" data-name="Rectangle 62" width="119" height="4" rx="2" transform="translate(525 1610)" fill="#fd8524"/>
      <g id="Group_34" data-name="Group 34" transform="translate(0 1)">
        <rect id="Rectangle_63" data-name="Rectangle 63" width="4" height="4" transform="translate(527 1561)" fill="#fd8524"/>
        <rect id="Rectangle_66" data-name="Rectangle 66" width="4" height="4" transform="translate(527 1573)" fill="#fd8524"/>
        <rect id="Rectangle_68" data-name="Rectangle 68" width="4" height="4" transform="translate(527 1585)" fill="#fd8524"/>
        <rect id="Rectangle_70" data-name="Rectangle 70" width="4" height="4" transform="translate(527 1597)" fill="#fd8524"/>
        <rect id="Rectangle_64" data-name="Rectangle 64" width="4" height="4" transform="translate(527 1567)" fill="#fd8524"/>
        <rect id="Rectangle_65" data-name="Rectangle 65" width="4" height="4" transform="translate(527 1579)" fill="#fd8524"/>
        <rect id="Rectangle_67" data-name="Rectangle 67" width="4" height="4" transform="translate(527 1591)" fill="#fd8524"/>
        <rect id="Rectangle_69" data-name="Rectangle 69" width="4" height="4" transform="translate(527 1603)" fill="#fd8524"/>
      </g>
    </g>
    <g id="Group_35" data-name="Group 35" transform="translate(110 1)">
      <rect id="Rectangle_63-2" data-name="Rectangle 63" width="4" height="4" transform="translate(527 1561)" fill="#fd8524"/>
      <rect id="Rectangle_66-2" data-name="Rectangle 66" width="4" height="4" transform="translate(527 1573)" fill="#fd8524"/>
      <rect id="Rectangle_68-2" data-name="Rectangle 68" width="4" height="4" transform="translate(527 1585)" fill="#fd8524"/>
      <rect id="Rectangle_70-2" data-name="Rectangle 70" width="4" height="4" transform="translate(527 1597)" fill="#fd8524"/>
      <rect id="Rectangle_64-2" data-name="Rectangle 64" width="4" height="4" transform="translate(527 1567)" fill="#fd8524"/>
      <rect id="Rectangle_65-2" data-name="Rectangle 65" width="4" height="4" transform="translate(527 1579)" fill="#fd8524"/>
      <rect id="Rectangle_67-2" data-name="Rectangle 67" width="4" height="4" transform="translate(527 1591)" fill="#fd8524"/>
      <rect id="Rectangle_69-2" data-name="Rectangle 69" width="4" height="4" transform="translate(527 1603)" fill="#fd8524"/>
    </g>
  </g>
</svg>
