<svg id="alarm_black_24dp" xmlns="http://www.w3.org/2000/svg" width="36.962" height="36.962" viewBox="0 0 36.962 36.962">
  <path id="Path_12" data-name="Path 12" d="M0,0H36.962V36.962H0Z" fill="none"/>
  <path id="Path_13" data-name="Path 13" d="M32.8,7.8,25.717,1.86,23.73,4.216l7.084,5.945ZM11.056,4.216,9.084,1.86,2,7.789l1.987,2.356,7.069-5.929Zm7.115,7.1h-2.31v9.24l7.315,4.389,1.155-1.894-6.16-3.65Zm-.77-6.16A13.861,13.861,0,1,0,31.261,19.016,13.862,13.862,0,0,0,17.4,5.156Zm0,24.641A10.781,10.781,0,1,1,28.181,19.016,10.773,10.773,0,0,1,17.4,29.8Z" transform="translate(1.08 1.005)"/>
</svg>
