
<svg xmlns="http://www.w3.org/2000/svg" width="124" height="149" viewBox="0 0 124 149">
  <g id="Group_30" data-name="Group 30" transform="translate(-158 -1556)">
    <g id="Group_28" data-name="Group 28">
      <rect id="Rectangle_49" data-name="Rectangle 49" width="21" height="21" rx="2" transform="translate(158 1556)" fill="#fd8524"/>
      <rect id="Rectangle_53" data-name="Rectangle 53" width="21" height="21" rx="2" transform="translate(158 1580)" fill="#fd8524"/>
      <rect id="Rectangle_56" data-name="Rectangle 56" width="21" height="21" rx="2" transform="translate(158 1604)" fill="#fd8524"/>
      <rect id="Rectangle_50" data-name="Rectangle 50" width="21" height="21" rx="2" transform="translate(182 1556)" fill="#fd8524"/>
      <rect id="Rectangle_54" data-name="Rectangle 54" width="21" height="21" rx="2" transform="translate(182 1580)" fill="#fd8524"/>
      <rect id="Rectangle_57" data-name="Rectangle 57" width="21" height="21" rx="2" transform="translate(182 1604)" fill="#fd8524"/>
      <rect id="Rectangle_51" data-name="Rectangle 51" width="21" height="21" rx="2" transform="translate(206 1556)" fill="#fd8524"/>
      <rect id="Rectangle_52" data-name="Rectangle 52" width="21" height="21" rx="2" transform="translate(206 1580)" fill="#fd8524"/>
      <rect id="Rectangle_55" data-name="Rectangle 55" width="21" height="21" rx="2" transform="translate(206 1604)" fill="#fd8524"/>
    </g>
    <g id="Group_29" data-name="Group 29" transform="translate(55 80)">
      <rect id="Rectangle_49-2" data-name="Rectangle 49" width="21" height="21" rx="2" transform="translate(158 1556)" fill="#fd8524"/>
      <rect id="Rectangle_53-2" data-name="Rectangle 53" width="21" height="21" rx="2" transform="translate(158 1580)" fill="#fd8524"/>
      <rect id="Rectangle_56-2" data-name="Rectangle 56" width="21" height="21" rx="2" transform="translate(158 1604)" fill="#fd8524"/>
      <rect id="Rectangle_50-2" data-name="Rectangle 50" width="21" height="21" rx="2" transform="translate(182 1556)" fill="#fd8524"/>
      <rect id="Rectangle_54-2" data-name="Rectangle 54" width="21" height="21" rx="2" transform="translate(182 1580)" fill="#fd8524"/>
      <rect id="Rectangle_57-2" data-name="Rectangle 57" width="21" height="21" rx="2" transform="translate(182 1604)" fill="#fd8524"/>
      <rect id="Rectangle_51-2" data-name="Rectangle 51" width="21" height="21" rx="2" transform="translate(206 1556)" fill="#fd8524"/>
      <rect id="Rectangle_52-2" data-name="Rectangle 52" width="21" height="21" rx="2" transform="translate(206 1580)" fill="#fd8524"/>
      <rect id="Rectangle_55-2" data-name="Rectangle 55" width="21" height="21" rx="2" transform="translate(206 1604)" fill="#fd8524"/>
    </g>
  </g>
</svg>
