
<svg id="contact_support_black_24dp" xmlns="http://www.w3.org/2000/svg" width="78.185" height="78.185" viewBox="0 0 78.185 78.185">
  <path id="Path_22" data-name="Path 22" d="M0,0H78.185V78.185H0Z" fill="none"/>
  <path id="Path_23" data-name="Path 23" d="M30.691,2a27.691,27.691,0,0,0,0,55.381h1.629v9.773c15.833-7.623,26.062-22.8,26.062-37.464A27.709,27.709,0,0,0,30.691,2Zm3.258,47.237H27.433V42.722h6.515Zm0-11.4H27.433c0-10.588,9.773-9.773,9.773-16.289a6.515,6.515,0,0,0-13.031,0H17.66a13.031,13.031,0,0,1,26.062,0C43.722,29.691,33.948,30.505,33.948,37.835Z" transform="translate(6.773 3.515)" fill="none" stroke="#040404" stroke-width="2"/>
</svg>
