
<svg xmlns="http://www.w3.org/2000/svg" width="108.5" height="108" viewBox="0 0 108.5 108">
  <g id="Group_55" data-name="Group 55" transform="translate(-4224.5 -1551)">
    <path id="Path_46" data-name="Path 46" d="M4232.038,1557.536h84.249l7.564,13.042h-99.117Z" transform="translate(-0.234 3.753)" fill="#fd8524"/>
    <path id="Path_47" data-name="Path 47" d="M4232.038,1557.536h84.249l7.564,13.042h-99.117Z" transform="translate(-0.234 24.217)" fill="#fd8524"/>
    <path id="Path_48" data-name="Path 48" d="M4232.038,1557.536h84.249l7.564,13.042h-99.117Z" transform="translate(-0.234 44.681)" fill="#fd8524"/>
    <path id="Path_49" data-name="Path 49" d="M4232.038,1557.536h84.249l7.564,13.042h-99.117Z" transform="translate(-0.234 65.146)" fill="#fd8524"/>
    <path id="Path_50" data-name="Path 50" d="M4232.038,1557.536h84.249l7.564,13.042h-99.117Z" transform="translate(-0.234 85.61)" fill="#fd8524"/>
    <rect id="Rectangle_115" data-name="Rectangle 115" width="4" height="103" transform="translate(4237 1556)" fill="#fd8524"/>
    <rect id="Rectangle_116" data-name="Rectangle 116" width="4" height="103" transform="translate(4309 1556)" fill="#fd8524"/>
    <rect id="Rectangle_117" data-name="Rectangle 117" width="4" height="68" transform="translate(4324 1556)" fill="#fd8524"/>
    <rect id="Rectangle_118" data-name="Rectangle 118" width="108" height="6" transform="translate(4225 1551)" fill="#fd8524"/>
  </g>
</svg>
