
<svg id="credit_card_off_black_24dp" xmlns="http://www.w3.org/2000/svg" width="84" height="84" viewBox="0 0 84 84">
  <rect id="Rectangle_24" data-name="Rectangle 24" width="84" height="84" fill="none"/>
  <path id="Path_3" data-name="Path 3" d="M22.074,8.717H67.941a6.941,6.941,0,0,1,6.965,6.965V57.475a6.9,6.9,0,0,1-.8,3.274l-6.164-6.164V36.579H49.936L36,22.648H67.941V15.683h-38.9ZM69.648,75.969,58.085,64.441H12.218a6.941,6.941,0,0,1-6.965-6.965l.035-41.793a6.662,6.662,0,0,1,.8-3.239L.69,7.011,5.6,2.1,74.559,71.058Zm-57.43-57.4v4.075h4.075Zm38.9,38.9-20.9-20.9H12.218v20.9Z" transform="translate(1.713 5.214)" fill="#fff"/>
</svg>
