
<svg id="savings_black_24dp" xmlns="http://www.w3.org/2000/svg" width="80" height="80" viewBox="0 0 80 80">
  <rect id="Rectangle_129" data-name="Rectangle 129" width="80" height="80" fill="none"/>
  <g id="Group_61" data-name="Group 61" transform="translate(6.633 6.632)">
    <path id="Path_52" data-name="Path 52" d="M61.132,20.241,53.6,12.712A17.754,17.754,0,0,1,54.665,8.9a4.958,4.958,0,0,0,.3-2.885A5.16,5.16,0,0,0,49.757,2,16.6,16.6,0,0,0,36.822,8.633H20.24A18.23,18.23,0,0,0,2,26.874c0,7.462,4.544,24.807,6.9,33.3a6.646,6.646,0,0,0,6.4,4.842h6.6a6.652,6.652,0,0,0,6.633-6.633h6.633A6.652,6.652,0,0,0,41.8,65.012h6.666a6.677,6.677,0,0,0,6.368-4.742l4.146-13.8,7.1-2.388a3.317,3.317,0,0,0,2.255-3.151V23.557a3.326,3.326,0,0,0-3.316-3.316ZM35.164,25.215H25.215A3.326,3.326,0,0,1,21.9,21.9h0a3.326,3.326,0,0,1,3.316-3.316h9.949A3.326,3.326,0,0,1,38.481,21.9h0A3.326,3.326,0,0,1,35.164,25.215ZM48.43,31.848a3.316,3.316,0,1,1,3.316-3.316A3.326,3.326,0,0,1,48.43,31.848Z" transform="translate(-2 -2)" fill="none" stroke="#060606" stroke-width="2"/>
  </g>
</svg>
