
<svg id="savings_black_24dp" xmlns="http://www.w3.org/2000/svg" width="102" height="102" viewBox="0 0 102 102">
  <rect id="Rectangle_129" data-name="Rectangle 129" width="102" height="102" fill="none"/>
  <g id="Group_61" data-name="Group 61" transform="translate(8.485 8.484)">
    <path id="Path_52" data-name="Path 52" d="M77.643,25.334l-9.63-9.63a22.711,22.711,0,0,1,1.358-4.879,6.343,6.343,0,0,0,.382-3.691A6.6,6.6,0,0,0,63.091,2a21.235,21.235,0,0,0-16.545,8.485H25.333A23.32,23.32,0,0,0,2,33.819c0,9.545,5.812,31.733,8.824,42.594a8.5,8.5,0,0,0,8.188,6.194h8.442a8.51,8.51,0,0,0,8.485-8.485h8.485a8.51,8.51,0,0,0,8.485,8.485h8.527a8.541,8.541,0,0,0,8.145-6.067l5.3-17.649,9.079-3.055a4.243,4.243,0,0,0,2.885-4.03V29.576a4.255,4.255,0,0,0-4.242-4.242ZM44.424,31.7H31.7a4.255,4.255,0,0,1-4.242-4.242h0A4.255,4.255,0,0,1,31.7,23.213H44.424a4.255,4.255,0,0,1,4.242,4.242h0A4.255,4.255,0,0,1,44.424,31.7Zm16.97,8.485a4.242,4.242,0,1,1,4.242-4.242A4.255,4.255,0,0,1,61.394,40.182Z" transform="translate(-2 -2)" fill="#fd8524"/>
  </g>
</svg>
 