
<svg id="collections_black_24dp" xmlns="http://www.w3.org/2000/svg" width="78.009" height="78.009" viewBox="0 0 78.009 78.009">
  <path id="Path_20" data-name="Path 20" d="M0,0H78.009V78.009H0Z" fill="none"/>
  <path id="Path_21" data-name="Path 21" d="M67.007,47.505V8.5a6.52,6.52,0,0,0-6.5-6.5h-39A6.52,6.52,0,0,0,15,8.5v39a6.52,6.52,0,0,0,6.5,6.5h39A6.52,6.52,0,0,0,67.007,47.505Zm-35.754-13,6.6,8.808,9.654-12.059,13,16.252h-39ZM2,15V60.506a6.52,6.52,0,0,0,6.5,6.5H54.006v-6.5H8.5V15Z" transform="translate(4.501 4.501)" fill="none" stroke="#030303" stroke-width="2"/>
</svg>
