
<svg id="chair_black_24dp" xmlns="http://www.w3.org/2000/svg" width="78" height="78" viewBox="0 0 78 78">
  <g id="Group_22" data-name="Group 22">
    <path id="Path_15" data-name="Path 15" d="M0,0H78V78H0Z" fill="none"/>
  </g>
  <g id="Group_24" data-name="Group 24" transform="translate(3.25 9.75)">
    <g id="Group_23" data-name="Group 23">
      <path id="Path_16" data-name="Path 16" d="M13.75,29v6.5h32.5V29A13,13,0,0,1,56,16.455V12.75A9.779,9.779,0,0,0,46.25,3H13.75A9.779,9.779,0,0,0,4,12.75v3.705A13,13,0,0,1,13.75,29Z" transform="translate(5.75 -3)" fill="none" stroke="#010101" stroke-width="2"/>
      <path id="Path_17" data-name="Path 17" d="M66,9a6.519,6.519,0,0,0-6.5,6.5v13H14v-13a6.5,6.5,0,1,0-13,0V31.75a9.779,9.779,0,0,0,9.75,9.75v3.25a3.25,3.25,0,0,0,6.5,0V41.5h39v3.25a3.25,3.25,0,0,0,6.5,0V41.5a9.779,9.779,0,0,0,9.75-9.75V15.5A6.519,6.519,0,0,0,66,9Z" transform="translate(-1 10.5)" fill="none" stroke="#010101" stroke-width="2"/>
    </g>
  </g>
</svg>
