
<svg id="home_black_24dp_1_" data-name="home_black_24dp (1)" xmlns="http://www.w3.org/2000/svg" width="77.901" height="77.901" viewBox="0 0 77.901 77.901">
  <path id="Path_9" data-name="Path 9" d="M0,0H77.9V77.9H0Z" fill="none"/>
  <path id="Path_10" data-name="Path 10" d="M26.166,54.159V37.93H39.149V54.159a3.255,3.255,0,0,0,3.246,3.246h9.738a3.255,3.255,0,0,0,3.246-3.246V31.438H60.9a1.61,1.61,0,0,0,1.071-2.824L34.832,4.173a3.271,3.271,0,0,0-4.349,0L3.347,28.614a1.616,1.616,0,0,0,1.071,2.824H9.936V54.159a3.255,3.255,0,0,0,3.246,3.246H22.92A3.255,3.255,0,0,0,26.166,54.159Z" transform="translate(6.293 7.512)" fill="#fd8524"/>
</svg>
