<svg xmlns="http://www.w3.org/2000/svg" width="74" height="55" viewBox="0 0 74 55">
  <g id="Group_26" data-name="Group 26" transform="translate(-1697 -643)">
    <g id="settings_black_24dp_1_" data-name="settings_black_24dp (1)" transform="translate(1697 661)">
      <rect id="Rectangle_59" data-name="Rectangle 59" width="37" height="37" fill="none"/>
      <path id="Path_23" data-name="Path 23" d="M28.623,17.3c0-.352-.015-.688-.046-1.04L31.423,14.1a1.539,1.539,0,0,0,.4-1.989L28.96,7.17a1.51,1.51,0,0,0-1.912-.642L23.759,7.92a11.606,11.606,0,0,0-1.79-1.04l-.444-3.534A1.534,1.534,0,0,0,20.011,2H14.305a1.538,1.538,0,0,0-1.53,1.346L12.332,6.88a11.606,11.606,0,0,0-1.79,1.04L7.253,6.528a1.51,1.51,0,0,0-1.912.642L2.481,12.127a1.542,1.542,0,0,0,.4,1.989l2.845,2.157c-.031.337-.046.673-.046,1.025s.015.688.046,1.04L2.878,20.494a1.539,1.539,0,0,0-.4,1.989l2.861,4.941a1.51,1.51,0,0,0,1.912.642l3.289-1.392a11.606,11.606,0,0,0,1.79,1.04l.444,3.534a1.534,1.534,0,0,0,1.514,1.346H20a1.534,1.534,0,0,0,1.514-1.346l.444-3.534a11.606,11.606,0,0,0,1.79-1.04l3.289,1.392a1.51,1.51,0,0,0,1.912-.642l2.861-4.941a1.542,1.542,0,0,0-.4-1.989l-2.845-2.157A7.909,7.909,0,0,0,28.623,17.3ZM17.212,22.651A5.354,5.354,0,1,1,22.566,17.3,5.36,5.36,0,0,1,17.212,22.651Z" transform="translate(1.206 1.059)" fill="#569ec3"/>
    </g>
    <g id="settings_black_24dp_1_2" data-name="settings_black_24dp (1)" transform="translate(1734 643)">
      <rect id="Rectangle_59-2" data-name="Rectangle 59" width="37" height="37" fill="none"/>
      <path id="Path_23-2" data-name="Path 23" d="M28.623,17.3c0-.352-.015-.688-.046-1.04L31.423,14.1a1.539,1.539,0,0,0,.4-1.989L28.96,7.17a1.51,1.51,0,0,0-1.912-.642L23.759,7.92a11.606,11.606,0,0,0-1.79-1.04l-.444-3.534A1.534,1.534,0,0,0,20.011,2H14.305a1.538,1.538,0,0,0-1.53,1.346L12.332,6.88a11.606,11.606,0,0,0-1.79,1.04L7.253,6.528a1.51,1.51,0,0,0-1.912.642L2.481,12.127a1.542,1.542,0,0,0,.4,1.989l2.845,2.157c-.031.337-.046.673-.046,1.025s.015.688.046,1.04L2.878,20.494a1.539,1.539,0,0,0-.4,1.989l2.861,4.941a1.51,1.51,0,0,0,1.912.642l3.289-1.392a11.606,11.606,0,0,0,1.79,1.04l.444,3.534a1.534,1.534,0,0,0,1.514,1.346H20a1.534,1.534,0,0,0,1.514-1.346l.444-3.534a11.606,11.606,0,0,0,1.79-1.04l3.289,1.392a1.51,1.51,0,0,0,1.912-.642l2.861-4.941a1.542,1.542,0,0,0-.4-1.989l-2.845-2.157A7.909,7.909,0,0,0,28.623,17.3ZM17.212,22.651A5.354,5.354,0,1,1,22.566,17.3,5.36,5.36,0,0,1,17.212,22.651Z" transform="translate(1.206 1.059)" fill="#569ec3"/>
    </g>
  </g>
</svg>
