<svg xmlns="http://www.w3.org/2000/svg" width="52.376" height="38.326" viewBox="0 0 52.376 38.326">
  <g id="Group_20" data-name="Group 20" transform="translate(-539 -656)">
    <path id="arrow_back_ios_FILL0_wght400_GRAD0_opsz48" d="M18.6,42.6,1.05,25.05a1.524,1.524,0,0,1-.35-.5,1.562,1.562,0,0,1,0-1.1,1.524,1.524,0,0,1,.35-.5L18.6,5.4a2.057,2.057,0,0,1,2.8,0,1.992,1.992,0,0,1,0,2.85L5.65,24,21.4,39.75a1.861,1.861,0,0,1,.575,1.425,2.006,2.006,0,0,1-2,1.975A1.866,1.866,0,0,1,18.6,42.6Z" transform="translate(538.4 651.15)" fill="#00c875"/>
    <path id="arrow_forward_ios_FILL0_wght400_GRAD0_opsz48_1_" data-name="arrow_forward_ios_FILL0_wght400_GRAD0_opsz48 (1)" d="M13.8,42.45a2.109,2.109,0,0,1-.575-1.4,1.832,1.832,0,0,1,.575-1.4L29.55,23.9,13.8,8.15a1.954,1.954,0,0,1-.575-1.375A1.861,1.861,0,0,1,13.8,5.35a1.933,1.933,0,0,1,2.8-.05L34.15,22.85a1.524,1.524,0,0,1,.35.5,1.563,1.563,0,0,1,0,1.1,1.524,1.524,0,0,1-.35.5L16.6,42.5a1.866,1.866,0,0,1-1.375.55A1.947,1.947,0,0,1,13.8,42.45Z" transform="translate(556.776 651.276)" fill="#00c875"/>
  </g>
</svg>
