
<svg xmlns="http://www.w3.org/2000/svg" width="120.438" height="122.162" viewBox="0 0 120.438 122.162">
  <g id="Group_42" data-name="Group 42" transform="translate(-3853.876 -1307.898)">
    <path id="Path_32" data-name="Path 32" d="M4034.853,1328.109V1341.7h-64.144v-13.595l19.722-13.4V1296.9h23.551v17.807Z" transform="translate(-60.539 11)" fill="#fd8524"/>
    <path id="Path_33" data-name="Path 33" d="M3970.708,1329.056v65.293h64.144v-65.293Z" transform="translate(-60.539 35.711)" fill="#fd8524"/>
    <path id="Path_34" data-name="Path 34" d="M3938.876,1329.056v30.253H3990v-30.253Z" transform="translate(-85 35.711)" fill="#fd8524"/>
    <path id="Path_35" data-name="Path 35" d="M3938.876,1329.056v30.253H3990v-30.253Z" transform="translate(-85 70.751)" fill="#fd8524"/>
    <rect id="Rectangle_91" data-name="Rectangle 91" width="37.054" height="7.411" transform="translate(3861.44 1369.78)" fill="#fff"/>
    <rect id="Rectangle_93" data-name="Rectangle 93" width="37.054" height="24.702" transform="translate(3923.196 1394.482)" fill="#fff"/>
    <rect id="Rectangle_92" data-name="Rectangle 92" width="37.054" height="7.411" transform="translate(3861.44 1406.833)" fill="#fff"/>
    <g id="Group_41" data-name="Group 41" transform="translate(3920.725 1372.25)">
      <rect id="Rectangle_94" data-name="Rectangle 94" width="9.881" height="8.646" transform="translate(0 0)" fill="#fff"/>
      <rect id="Rectangle_95" data-name="Rectangle 95" width="9.881" height="8.646" transform="translate(16.057 0)" fill="#fff"/>
      <rect id="Rectangle_96" data-name="Rectangle 96" width="8.646" height="8.646" transform="translate(32.113 0)" fill="#fff"/>
    </g>
  </g>
</svg>
