
<svg id="monetization_on_black_24dp" xmlns="http://www.w3.org/2000/svg" width="78.231" height="78.231" viewBox="0 0 78.231 78.231">
  <path id="Path_18" data-name="Path 18" d="M0,0H78.231V78.231H0Z" fill="none"/>
  <path id="Path_19" data-name="Path 19" d="M34.6,2a32.6,32.6,0,1,0,32.6,32.6A32.608,32.608,0,0,0,34.6,2Zm4.6,52.448v1.891a4.354,4.354,0,0,1-4.335,4.335h-.033a4.354,4.354,0,0,1-4.335-4.335V54.382c-4.335-.913-8.182-3.292-9.812-7.3A2.775,2.775,0,0,1,23.285,43.3h.782a2.9,2.9,0,0,1,2.64,1.956c.945,2.445,3.423,4.14,8.182,4.14,6.389,0,7.823-3.194,7.823-5.183,0-2.706-1.434-5.248-8.7-6.976-8.084-1.956-13.625-5.281-13.625-11.963,0-5.607,4.531-9.257,10.137-10.463V12.855a4.354,4.354,0,0,1,4.335-4.335h.033a4.354,4.354,0,0,1,4.335,4.335v2.021A11.6,11.6,0,0,1,47.8,22.242a2.77,2.77,0,0,1-2.64,3.683H44.31A2.636,2.636,0,0,1,41.8,23.9c-.75-2.477-2.8-4.075-6.91-4.075-4.889,0-7.823,2.217-7.823,5.346,0,2.738,2.119,4.531,8.7,6.226S49.4,35.933,49.4,44.147c-.065,5.965-4.531,9.225-10.2,10.3Z" transform="translate(4.519 4.519)" fill="none" stroke="#000" stroke-width="2"/>
</svg>
