
<svg xmlns="http://www.w3.org/2000/svg" width="139.042" height="116.146" viewBox="0 0 139.042 116.146">
  <g id="Group_53" data-name="Group 53" transform="translate(-892.958 -1950.817)">
    <g id="Group_52" data-name="Group 52">
      <g id="Group_51" data-name="Group 51" transform="translate(-2757.763 397.183)">
        <path id="Rectangle_110" data-name="Rectangle 110" d="M0,0H76.66a0,0,0,0,1,0,0V54.125a6,6,0,0,1-6,6H6a6,6,0,0,1-6-6V0A0,0,0,0,1,0,0Z" transform="translate(3663.165 1587.253)" fill="#fd8524"/>
        <path id="Path_43" data-name="Path 43" d="M3697.211,1561.267l-37.974,22.85H3735.4Z" transform="translate(3.928 3.136)" fill="#fd8524"/>
        <rect id="Rectangle_111" data-name="Rectangle 111" width="60.125" height="6.013" rx="3" transform="matrix(0.848, 0.53, -0.53, 0.848, 3700.505, 1553.634)" fill="#fd8524"/>
        <rect id="Rectangle_112" data-name="Rectangle 112" width="60.125" height="6.013" rx="3" transform="matrix(-0.848, 0.53, -0.53, -0.848, 3704.897, 1558.733)" fill="#fd8524"/>
      </g>
      <g id="Path_83" data-name="Path 83" transform="translate(930 2010)" fill="#fd8524">
        <path d="M 26.5 34.5 L 0.5 34.5 L 0.5 0.5 L 26.5 0.5 L 26.5 34.5 Z" stroke="none"/>
        <path d="M 1 1 L 1 34 L 26 34 L 26 1 L 1 1 M 0 0 L 27 0 L 27 35 L 0 35 L 0 0 Z" stroke="none" fill="#fff"/>
      </g>
    </g>
    <g id="imagesearch_roller_black_24dp" transform="translate(982.69 2017.653)">
      <path id="Path_41" data-name="Path 41" d="M0,0H49.31V49.31H0Z" fill="none"/>
      <path id="Path_42" data-name="Path 42" d="M38.983,2V14.328H10.218V10.218H6.109v8.218H26.655V28.71h4.109V45.146H18.437V28.71h4.109V22.546H2V6.109h8.218V2" transform="translate(2.109 2.109)" fill="#fd8524"/>
    </g>
  </g>
</svg>
