
<svg xmlns="http://www.w3.org/2000/svg" width="115.945" height="115.251" viewBox="0 0 115.945 115.251">
  <g id="Group_40" data-name="Group 40" transform="translate(-3657.946 -1299.038)">
    <g id="Group_39" data-name="Group 39" transform="translate(3657.946 1299.038)">
      <path id="Path_26" data-name="Path 26" d="M3690.4,1307.839l42.85,25.18v61.4H3690.4Z" transform="translate(-3630.131 -1291.494)" fill="#fd8524"/>
      <path id="Path_27" data-name="Path 27" d="M3690.4,1299.038v11.044l49.476,29.6,6.2-6.2Z" transform="translate(-3630.131 -1299.038)" fill="#fd8524"/>
      <path id="Path_28" data-name="Path 28" d="M3746.076,1299.038v11.044l-49.477,29.6-6.2-6.2Z" transform="translate(-3690.4 -1299.038)" fill="#fd8524"/>
      <path id="Path_29" data-name="Path 29" d="M3706.515,1307.839v23.625h-40.276Z" transform="translate(-3650.839 -1291.494)" fill="#fd8524"/>
      <path id="Path_30" data-name="Path 30" d="M3709.651,1322.954v23.264h-47.072v-23.264Z" transform="translate(-3653.975 -1278.54)" fill="#fd8524"/>
      <path id="Path_31" data-name="Path 31" d="M3772.564,1357.016v7.58H3658.075v-7.58Z" transform="translate(-3657.835 -1249.346)" fill="#fd8524"/>
      <rect id="Rectangle_71" data-name="Rectangle 71" width="35.834" height="31.534" transform="translate(63.146 51.547)" fill="#fff"/>
      <rect id="Rectangle_76" data-name="Rectangle 76" width="5.734" height="7.167" transform="translate(8.677 73.048)" fill="#fd8524"/>
      <rect id="Rectangle_80" data-name="Rectangle 80" width="14.334" height="10.034" transform="translate(8.677 83.082)" fill="#fd8524"/>
      <rect id="Rectangle_83" data-name="Rectangle 83" width="5.734" height="10.034" transform="translate(8.677 94.549)" fill="#fd8524"/>
      <rect id="Rectangle_84" data-name="Rectangle 84" width="11.467" height="10.034" transform="translate(18.711 94.549)" fill="#fd8524"/>
      <rect id="Rectangle_85" data-name="Rectangle 85" width="11.467" height="10.034" transform="translate(33.045 94.549)" fill="#fd8524"/>
      <rect id="Rectangle_86" data-name="Rectangle 86" width="7.167" height="10.034" transform="translate(48.812 94.549)" fill="#fd8524"/>
      <rect id="Rectangle_81" data-name="Rectangle 81" width="12.9" height="10.034" transform="translate(25.878 83.082)" fill="#fd8524"/>
      <rect id="Rectangle_82" data-name="Rectangle 82" width="12.9" height="10.034" transform="translate(43.078 83.082)" fill="#fd8524"/>
      <rect id="Rectangle_77" data-name="Rectangle 77" width="11.467" height="7.167" transform="translate(18.711 73.048)" fill="#fd8524"/>
      <rect id="Rectangle_78" data-name="Rectangle 78" width="12.9" height="7.167" transform="translate(33.045 73.048)" fill="#fd8524"/>
      <rect id="Rectangle_79" data-name="Rectangle 79" width="5.734" height="7.167" transform="translate(50.245 73.048)" fill="#fd8524"/>
    </g>
    <g id="Group_38" data-name="Group 38" transform="translate(3728.259 1356.319)">
      <rect id="Rectangle_87" data-name="Rectangle 87" width="10.034" height="10.034" transform="translate(0 0)" fill="#fd8524"/>
      <rect id="Rectangle_90" data-name="Rectangle 90" width="10.034" height="10.034" transform="translate(0 11.467)" fill="#fd8524"/>
      <rect id="Rectangle_88" data-name="Rectangle 88" width="10.034" height="10.034" transform="translate(11.467 0)" fill="#fd8524"/>
      <rect id="Rectangle_89" data-name="Rectangle 89" width="10.034" height="10.034" transform="translate(11.467 11.467)" fill="#fd8524"/>
    </g>
  </g>
</svg>
