
<svg id="construction_black_24dp" xmlns="http://www.w3.org/2000/svg" width="78" height="78" viewBox="0 0 78 78">
  <g id="Group_19" data-name="Group 19">
    <rect id="Rectangle_45" data-name="Rectangle 45" width="78" height="78" fill="none"/>
    <rect id="Rectangle_46" data-name="Rectangle 46" width="78" height="78" fill="none"/>
  </g>
  <g id="Group_21" data-name="Group 21" transform="translate(8.316 8.553)">
    <g id="Group_20" data-name="Group 20">
      <path id="Path_13" data-name="Path 13" d="M37.045,29.224,20.871,13.05,13.93,19.991,30.1,36.165a4.881,4.881,0,0,0,6.941,0A4.941,4.941,0,0,0,37.045,29.224Z" transform="translate(23.362 21.123)" fill="none" stroke="#000" stroke-width="2"/>
      <path id="Path_14" data-name="Path 14" d="M52.011,26.8A11.472,11.472,0,0,0,63.47,15.34,11.312,11.312,0,0,0,62.128,10.1l-8.84,8.84L48.41,14.064l8.84-8.84a11.312,11.312,0,0,0-5.239-1.342A11.472,11.472,0,0,0,40.552,15.34a11.165,11.165,0,0,0,.688,3.8L35.182,25.2l-5.828-5.828h0a3.261,3.261,0,0,0,0-4.616L27.03,12.427l6.941-6.941a9.821,9.821,0,0,0-13.882,0l-9.233,9.266a3.261,3.261,0,0,0,0,4.616l2.325,2.325H4.865a2.2,2.2,0,0,0-1.637.688,2.293,2.293,0,0,0,0,3.274l8.316,8.316a2.293,2.293,0,0,0,3.274,0,2.331,2.331,0,0,0,.688-1.637V24.017L17.8,26.309a3.261,3.261,0,0,0,4.616,0l5.828,5.828L7.451,52.927a4.881,4.881,0,0,0,0,6.941h0a4.881,4.881,0,0,0,6.941,0L48.18,26.112A11.5,11.5,0,0,0,52.011,26.8Z" transform="translate(-2.54 -2.613)" fill="none" stroke="#000" stroke-width="2"/>
    </g>
  </g>
</svg>
