<svg id="Group_112" data-name="Group 112" xmlns="http://www.w3.org/2000/svg" xmlns:xlink="http://www.w3.org/1999/xlink" width="658" height="439" viewBox="0 0 658 439">
  <defs>
    <clipPath id="clip-path">
      <path id="Path_51" data-name="Path 51" d="M307.7,40.789c-95.573-6-129.474,41.142-178.048,89.9S58.62,230.908,86.846,304.169s94.872,91.89,199.475,91.89S498.645,406.264,553.2,366.416s73.139-130.909-5.9-178.555C500.74,159.8,439.814,49.08,307.7,40.789Z" transform="translate(-74.463 -40.272)" fill="none"/>
    </clipPath>
  </defs>
  <rect id="Rectangle_86" data-name="Rectangle 86" width="658" height="439" fill="#fffcf5"/>
  <g id="Group_61" data-name="Group 61" transform="translate(65.362 35.35)">
    <path id="Path_31" data-name="Path 31" d="M307.7,40.789c-95.573-6-129.474,41.142-178.048,89.9S58.62,230.908,86.846,304.169s94.872,91.89,199.475,91.89S498.645,406.264,553.2,366.416s73.139-130.909-5.9-178.555C500.74,159.8,439.814,49.08,307.7,40.789Z" transform="translate(-74.463 -40.272)" fill="#fff2db"/>
    <g id="Group_60" data-name="Group 60">
      <g id="Group_59" data-name="Group 59" clip-path="url(#clip-path)">
        <g id="Group_51" data-name="Group 51" transform="translate(35.442 251.095)">
          <g id="Group_38" data-name="Group 38" transform="translate(25.67)">
            <path id="Path_32" data-name="Path 32" d="M163.05,415.626c-1.023-12.694-5.141-24.749-9.247-36.715-4.058-11.826-8.622-24.3-8.826-36.949-.089-5.46,2.4-16.562,10.186-14.476,2.632.706,4.287,3.563,5.475,5.786a63.029,63.029,0,0,1,3.874,9.184c4.082,11.835,4.816,24.5,4.784,36.925-.024,9.34-.673,18.727.09,28.052a.439.439,0,0,0,.878,0,217.9,217.9,0,0,1,3.005-39.058,171.731,171.731,0,0,1,4.359-18.226c.632-2.147,2.636-5.436,4.838-6.007,3.274-.849,7.325.064,8.584,3.6,4.7,13.2.717,27.411-3.665,40.1a168.715,168.715,0,0,1-6.069,15.854q-2.91,6.3-5.71,12.644c-.547,1.24-1.088,2.482-1.607,3.734-.218.523.632.748.845.233,3.33-8.008,7.472-15.7,10.4-23.858,4.384-12.225,9.279-24.781,8.727-37.993a40.814,40.814,0,0,0-1.36-8.64c-.666-2.537-1.452-4.463-3.732-5.887a8.458,8.458,0,0,0-5.476-.855c-2.315.285-3.11.9-4.353,2.79a14.63,14.63,0,0,0-1.821,2.567q-.67,2.209-1.294,4.43c-.88,3.134-1.653,6.3-2.353,9.476a172.842,172.842,0,0,0-2.883,17.639,237.2,237.2,0,0,0-1.312,27.455h.878c-.88-10.731.018-21.544-.109-32.294-.142-12.16-1.487-24.376-5.845-35.8-1.6-4.19-3.492-9.25-7.3-11.927-3.939-2.769-8.324.274-10.475,3.709-2.86,4.572-2.68,10.659-2.1,15.792a106.839,106.839,0,0,0,3.744,17.507c4.9,17.019,12.558,33.355,14,51.211.045.56.923.564.878,0Z" transform="translate(-144.084 -326.328)" fill="#ffbc45"/>
          </g>
          <g id="Group_39" data-name="Group 39" transform="translate(42.69 81.594)">
            <path id="Path_33" data-name="Path 33" d="M165.341,426.845a60.325,60.325,0,0,0-1.005-7.249.441.441,0,0,0-.862.116c.147,2.44.5,4.854.876,7.266.088.557.934.32.846-.233-.368-2.335-.7-4.671-.844-7.033l-.862.117a58.452,58.452,0,0,1,.973,7.016c.051.559.93.564.878,0Z" transform="translate(-163.473 -419.283)" fill="#ffbc45"/>
          </g>
          <g id="Group_40" data-name="Group 40" transform="translate(0 32.138)">
            <path id="Path_34" data-name="Path 34" d="M147.4,420.3c-3.71-9.812-11.491-17.013-18.4-24.595a60.538,60.538,0,0,1-9.643-13.289c-2.359-4.669-5.561-11.681-2.349-16.623,2.776-4.271,8.846-.809,11.868,1.224,3.855,2.6,6.9,6.077,9.816,9.65a94.686,94.686,0,0,1,17.678,33.815,81.064,81.064,0,0,1,2.015,9.211c.09.558.937.32.846-.233a91.674,91.674,0,0,0-12.909-33.611c-4.962-7.983-11.156-16.564-19.589-21.169-2.736-1.493-6.3-2.639-9.115-.747-3.572,2.4-3.006,7.647-2.085,11.2,2.63,10.147,9.838,18.024,16.811,25.457,5.612,5.981,11.267,12.15,14.214,19.94.2.525,1.046.3.845-.233Z" transform="translate(-114.839 -362.94)" fill="#ffbc45"/>
          </g>
          <g id="Group_41" data-name="Group 41" transform="translate(52.341 23.183)">
            <path id="Path_35" data-name="Path 35" d="M189,352.943c-5.814,9.059-4.713,20.617-6.49,30.821-1.022,5.863-3.117,11.441-4.187,17.285-1.131,6.175-2.371,12.315-3.842,18.419-.133.55.714.783.846.233q2.111-8.757,3.713-17.622c1-5.56,2.934-10.874,4.009-16.414,1.024-5.28,1.464-10.578,1.961-15.923.533-5.731,1.593-11.439,4.748-16.356.307-.478-.453-.917-.758-.442Z" transform="translate(-174.468 -352.738)" fill="#ffbc45"/>
          </g>
          <g id="Group_42" data-name="Group 42" transform="translate(34.002 9.751)">
            <path id="Path_36" data-name="Path 36" d="M153.577,337.86c.4,6.618,2.637,12.884,4.162,19.289,1.7,7.146,3.087,14.382,4.526,21.585,1.4,7.014,2.658,14.059,4.164,21.052a106.885,106.885,0,0,1,2.833,21.93.439.439,0,0,0,.878,0,103.007,103.007,0,0,0-2.36-19.746q-2.183-10.881-4.331-21.767c-1.371-6.961-2.753-13.932-4.3-20.856-1.6-7.13-4.254-14.152-4.692-21.487-.033-.563-.911-.566-.878,0Z" transform="translate(-153.576 -337.437)" fill="#ffbc45"/>
          </g>
          <g id="Group_43" data-name="Group 43" transform="translate(12.047 46.022)">
            <path id="Path_37" data-name="Path 37" d="M128.7,379.5c6.612,6.294,12.05,13.654,17.023,21.28,2.517,3.861,4.8,7.909,7.076,11.918,2.548,4.484,4,9.229,5.845,14.011.2.521,1.051.3.846-.233-1.665-4.317-2.908-8.71-5.135-12.79-2.345-4.3-4.817-8.592-7.461-12.709-5.088-7.925-10.733-15.586-17.573-22.1-.41-.39-1.031.23-.621.621Z" transform="translate(-128.563 -378.758)" fill="#ffbc45"/>
          </g>
          <g id="Group_44" data-name="Group 44" transform="translate(13.192 57.757)">
            <path id="Path_38" data-name="Path 38" d="M130.068,392.96c5.327,3.58,11.168,6.393,16.208,10.4.438.348,1.064-.269.621-.621-5.1-4.053-10.993-6.912-16.386-10.534-.472-.317-.911.444-.443.758Z" transform="translate(-129.868 -392.127)" fill="#ffbc45"/>
          </g>
          <g id="Group_45" data-name="Group 45" transform="translate(27.981 57.281)">
            <path id="Path_39" data-name="Path 39" d="M146.8,392.212c1.95,2.57,3.116,5.884,4.215,8.88a95.733,95.733,0,0,1,3.183,11.373c.127.551.973.317.845-.233a100,100,0,0,0-3.383-11.921,32.884,32.884,0,0,0-4.1-8.541c-.338-.445-1.1-.009-.758.442Z" transform="translate(-146.717 -391.584)" fill="#ffbc45"/>
          </g>
          <g id="Group_46" data-name="Group 46" transform="translate(56.968 47.267)">
            <path id="Path_40" data-name="Path 40" d="M179.742,380.6c.3,3.708,2.094,7.09,2.213,10.824.018.565.9.567.878,0-.119-3.74-1.912-7.117-2.213-10.824-.046-.559-.924-.564-.878,0Z" transform="translate(-179.74 -380.176)" fill="#ffbc45"/>
          </g>
          <g id="Group_47" data-name="Group 47" transform="translate(38.24 16.526)">
            <path id="Path_41" data-name="Path 41" d="M159.992,345.46c-1.23,3.857-1.062,8.06-1.584,12.041-.074.559.8.553.878,0,.512-3.907.347-8.025,1.552-11.808.172-.542-.675-.771-.846-.234Z" transform="translate(-158.404 -345.155)" fill="#ffbc45"/>
          </g>
          <g id="Group_48" data-name="Group 48" transform="translate(32.768 32.197)">
            <path id="Path_42" data-name="Path 42" d="M152.251,363.643c1.927,2.719,3.5,5.651,5.488,8.329a20.462,20.462,0,0,1,3.99,7.861c.122.553.968.318.845-.233a18.73,18.73,0,0,0-3.15-6.755c-2.166-3.19-4.186-6.5-6.416-9.644-.325-.457-1.086-.02-.758.442Z" transform="translate(-152.17 -363.007)" fill="#ffbc45"/>
          </g>
          <g id="Group_49" data-name="Group 49" transform="translate(44.663 43.144)">
            <path id="Path_43" data-name="Path 43" d="M168.008,375.8c-.9,5.4-1.768,10.806-2.284,16.261-.053.564.825.558.878,0,.509-5.376,1.369-10.7,2.252-16.028.092-.553-.754-.79-.846-.233Z" transform="translate(-165.721 -375.48)" fill="#ffbc45"/>
          </g>
          <g id="Group_50" data-name="Group 50" transform="translate(61.632 29.209)">
            <path id="Path_44" data-name="Path 44" d="M193.516,359.9c-2.17,5.67-5.85,10.671-8.417,16.157-.239.509.518.954.758.442,2.6-5.556,6.307-10.621,8.506-16.366.2-.53-.646-.756-.846-.233Z" transform="translate(-185.053 -359.604)" fill="#ffbc45"/>
          </g>
        </g>
        <g id="Group_58" data-name="Group 58" transform="translate(364.966 290.18)">
          <g id="Group_52" data-name="Group 52" transform="translate(21.588)">
            <path id="Path_45" data-name="Path 45" d="M547.191,434.822a37.14,37.14,0,0,0-6.911-11.1c-3.788-4.112-8.675-6.819-12.025-11.369a141.758,141.758,0,0,1-8.78-14.3,27.069,27.069,0,0,1-3.438-8.938,40.979,40.979,0,0,1-.158-9.583l-.66.379c2.122.908,3.686,2.513,5.4,4.007s3.7,2.611,5.519,3.941a53.1,53.1,0,0,1,11.144,11.422c2.872,3.927,4.889,8.557,6.834,12.992,1.692,3.854,3.066,8.255,5.571,11.672.274.373.979.167.8-.338a76.568,76.568,0,0,1-4.057-27.6,104.672,104.672,0,0,1,1.289-12.735,33.046,33.046,0,0,1,3.714-11.768h-.758a22.123,22.123,0,0,1,1.652,6.277,41.325,41.325,0,0,0,2.164,6.994,92.664,92.664,0,0,1,3.962,15.733,48.335,48.335,0,0,1,.434,16.577c-.789,5.2-2.229,10.28-3.309,15.42-.1.464.57.8.8.337,1.553-3.123,3.01-6.288,4.307-9.526,1.415-3.53,2.351-7.2,3.6-10.778,1.964-5.627,5.314-10.745,10.69-13.549,6.432-3.354,21.134-6.694,22.813,3.738l.644-.5c-9.715-4.113-17.333,4.966-22.211,12.2-3.3,4.9-6.725,9.512-10.5,14.072-1.5,1.811-2.84,4.041-4.584,5.613-1.557,1.4-4.583,3.552-6.791,3.343-.563-.053-.558.826,0,.878,2.927.275,6.983-2.694,8.612-4.944,3.327-4.592,7.277-8.7,10.6-13.295,5.483-7.569,12.736-22.057,24.424-17.109a.445.445,0,0,0,.645-.5c-1.666-10.348-15.2-8.03-22.1-5.187a22.068,22.068,0,0,0-11.453,11.057c-1.755,3.5-2.634,7.321-3.874,11.01a103.58,103.58,0,0,1-5.589,13.027l.8.338c1.134-5.4,2.6-10.726,3.425-16.185a46.248,46.248,0,0,0-.4-15.441,98.825,98.825,0,0,0-4.116-16.572,51.409,51.409,0,0,1-2.164-6.993c-.478-2.232-.679-4.426-1.741-6.485a.442.442,0,0,0-.758,0c-4,6.816-4.579,15.68-5.052,23.408a75.66,75.66,0,0,0,4.018,29.365l.8-.338c-2.64-3.6-4.093-8.306-5.885-12.388a66.146,66.146,0,0,0-7.444-13.519,53.932,53.932,0,0,0-9.948-10.041c-2.113-1.628-4.442-2.96-6.455-4.716a19.476,19.476,0,0,0-5.05-3.686.447.447,0,0,0-.66.379c-.406,5.654-.183,11.046,2.279,16.226a136.811,136.811,0,0,0,9.081,15.383,32.864,32.864,0,0,0,4.721,5.8c1.978,1.909,4.328,3.41,6.379,5.246a34.991,34.991,0,0,1,8.884,12.867c.215.514,1.065.289.847-.233Z" transform="translate(-514.84 -370.856)" fill="#ffbc45"/>
          </g>
          <g id="Group_53" data-name="Group 53" transform="translate(0 40.887)">
            <path id="Path_46" data-name="Path 46" d="M538.205,441.07c-4.971-8.04-8.937-18.946-18.465-22.625-5.072-1.957-11.2-.844-15.96,1.414-5.373,2.551-9.642,7.086-13.423,11.556a.442.442,0,0,0,.427.734c8.137-2.4,18.354-2.893,25.895,1.605,3.6,2.149,6.422,5.8,9.262,8.822,1.878,2,3.256,5.364,6.163,6.062.55.133.783-.714.233-.846-1.948-.469-3.267-2.6-4.394-4.093a50,50,0,0,0-3.5-3.97c-2.9-3.115-5.75-6.244-9.738-7.946-7.5-3.2-16.474-2.743-24.153-.481q.213.369.427.734c6.926-8.19,16.979-16.711,28.528-12.744,4.734,1.626,8.13,5.972,10.786,9.986,2.611,3.943,4.67,8.216,7.155,12.234.3.481,1.057.04.758-.442Z" transform="translate(-490.246 -417.435)" fill="#ffbc45"/>
          </g>
          <g id="Group_54" data-name="Group 54" transform="translate(34.622 25.711)">
            <path id="Path_47" data-name="Path 47" d="M529.735,400.815c3.554,7.457,9.861,12.964,14.4,19.761a80.426,80.426,0,0,1,5.915,10.834c2.092,4.529,1.428,9.194,1.393,14.032a.439.439,0,0,0,.878,0c.03-4.089.73-8.414-.637-12.342-1.433-4.119-3.839-8.052-6.05-11.793-4.406-7.459-11.374-13.039-15.139-20.936-.243-.511-1-.065-.758.442Z" transform="translate(-529.688 -400.147)" fill="#ffbc45"/>
          </g>
          <g id="Group_55" data-name="Group 55" transform="translate(22.407 48.148)">
            <path id="Path_48" data-name="Path 48" d="M515.992,426.521c6.5,3.446,12.857,7.043,17.364,13,1.6,2.115,3.161,4.259,4.788,6.353.478.615,1.8,2.907,2.8,2.8.557-.058.563-.937,0-.878-.733.076-3.106-3.751-3.462-4.222-1.476-1.948-2.905-3.932-4.409-5.859-4.248-5.444-10.655-8.785-16.64-11.955-.5-.265-.943.492-.442.758Z" transform="translate(-515.773 -425.708)" fill="#ffbc45"/>
          </g>
          <g id="Group_56" data-name="Group 56" transform="translate(57.036 24.413)">
            <path id="Path_49" data-name="Path 49" d="M557.2,399.092c.073,3.868,1.124,7.583,1.576,11.408a53,53,0,0,1-.571,13.87c-1.24,8.361-.664,16.845-2.968,25.063l.863.117v-.99a.439.439,0,0,0-.878,0v.99a.441.441,0,0,0,.862.117c2.228-7.947,2.036-16.258,2.894-24.4a85.314,85.314,0,0,0,.8-13.157c-.211-4.389-1.62-8.608-1.7-13.012a.439.439,0,0,0-.878,0Z" transform="translate(-555.223 -398.668)" fill="#ffbc45"/>
          </g>
          <g id="Group_57" data-name="Group 57" transform="translate(57.683 30.325)">
            <path id="Path_50" data-name="Path 50" d="M585.87,405.473c-6.713,4.248-11.59,11.588-15.42,18.4-3.686,6.557-6.926,14.639-14.26,17.873-.517.227-.07.984.442.758,6.527-2.877,9.965-9.642,13.172-15.61,4.072-7.579,9.088-15.97,16.508-20.665.478-.3.037-1.061-.442-.758Z" transform="translate(-555.96 -405.403)" fill="#ffbc45"/>
          </g>
        </g>
      </g>
    </g>
  </g>
  <path id="Path_52" data-name="Path 52" d="M379.43,239.224a8.457,8.457,0,0,1-8.457,8.458h0a8.458,8.458,0,0,1-8.457-8.458v-5.869a8.457,8.457,0,0,1,8.457-8.457h0a8.456,8.456,0,0,1,8.457,8.457Z" transform="translate(-44.307 -27.487)" fill="#ffbc45"/>
  <path id="Path_53" data-name="Path 53" d="M459.476,338.248c-2.331-11.392-12.427-42.2-37.02-53.331s-47.637-2.071-56.18,3.1-18.38,25.373-22.781,44.271-19.417,18.641-31.066,22.783l5.436,19.676,120.124.776.259-3.106C469.572,370.609,461.807,349.638,459.476,338.248ZM336.634,368.409c4.789,0,26.147-16.052,30.549-15.535,2.2,11.78,2.46,17.994,2.718,18.771S337.927,378.116,336.634,368.409Z" transform="translate(-38.185 -34.175)" fill="#ff9b15"/>
  <path id="Path_54" data-name="Path 54" d="M388.162,295.2c-1.552,7.42-7.939,52.813,2.936,82.671a195.137,195.137,0,0,0,21.054,0c-2.416-15.706-7.249-59.2,2.761-84.054C404.9,293.987,388.162,295.2,388.162,295.2Z" transform="translate(-47.041 -35.91)" fill="#ffe4b5"/>
  <path id="Path_55" data-name="Path 55" d="M393.72,279.927c-8.543.521-10.528,9.753-6.644,15.447s11.216,1.034,12.512-1.812c9.234,8.715,21.229.863,23.817-12.082C423.4,280.447,408.737,277.6,393.72,279.927Z" transform="translate(-47.076 -34.104)" fill="#ffe4b5"/>
  <path id="Path_56" data-name="Path 56" d="M415.642,222.767c-.39-8.615-9.234-25.053-30.2-24.124-14.928,1.148-16.742,15.29-16.742,15.29-.518,1.587-3.192,4.946-3.192,4.946-.777-6.626,3.413-24.185,22.265-24.655,21.227-.53,31.366,16.084,31.757,28.014A2.319,2.319,0,0,1,415.642,222.767Z" transform="translate(-44.661 -23.737)" fill="#ffbc45"/>
  <path id="Path_57" data-name="Path 57" d="M373.529,208.173c-7.17,4.911-11.464,13.087-7.831,21.216s4.665,11.714,1.14,18.074c-4.959,8.949-7.048,17.3-3.317,24.9,22.487-3.106,32.383-5.634,32.383-5.634S387.21,207.225,373.529,208.173Z" transform="translate(-44.197 -25.442)" fill="#31241c"/>
  <path id="Path_58" data-name="Path 58" d="M410.379,254.819s5.562,16.759,6.088,23.84c.479,6.492-21,10.825-22.529,4.019-1.588-8.1-3.949-21.866-3.949-21.866" transform="translate(-47.664 -31.144)" fill="#c97440"/>
  <path id="Path_59" data-name="Path 59" d="M412.164,261.818l-1.785-7-20.39,5.993s.727,4.23,1.657,9.532a20.078,20.078,0,0,0,20.518-8.527Z" transform="translate(-47.664 -31.144)" fill="#ab5d2d"/>
  <path id="Path_60" data-name="Path 60" d="M372.475,239.626a20.223,20.223,0,0,0,21.1,19.3h0a20.225,20.225,0,0,0,19.3-21.109l-.954-21.365a20.224,20.224,0,0,0-21.107-19.3h0a20.223,20.223,0,0,0-19.3,21.106Z" transform="translate(-45.405 -24.093)" fill="#c97440"/>
  <g id="Group_62" data-name="Group 62" transform="translate(344.748 192.012)">
    <path id="Path_61" data-name="Path 61" d="M401.762,220.145c-2.553-1.371-5.9-2.007-8.573-.63-1,.514-.118,2.018.88,1.5,2.079-1.073,4.846-.427,6.814.63.989.531,1.869-.973.88-1.5Z" transform="translate(-392.75 -218.747)" fill="#31241c"/>
  </g>
  <g id="Group_63" data-name="Group 63" transform="translate(327.874 193.166)">
    <path id="Path_62" data-name="Path 62" d="M375.026,223.126a5.12,5.12,0,0,1,4.541-1.229c1.1.225,1.562-1.454.463-1.679a6.955,6.955,0,0,0-6.236,1.677c-.816.774.418,2,1.232,1.232Z" transform="translate(-373.526 -220.062)" fill="#31241c"/>
  </g>
  <g id="Group_64" data-name="Group 64" transform="translate(336.825 204.793)">
    <path id="Path_63" data-name="Path 63" d="M388.323,240.328a.657.657,0,0,1-.435-.164l-3.94-3.47a.659.659,0,0,1,.112-1.068l3.97-2.234a.658.658,0,0,1,.646,1.147l-3.162,1.779,3.244,2.857a.659.659,0,0,1-.435,1.153Z" transform="translate(-383.724 -233.308)" fill="#31241c"/>
  </g>
  <g id="Group_65" data-name="Group 65" transform="translate(339.678 211.777)">
    <path id="Path_64" data-name="Path 64" d="M390.18,246.886a5.209,5.209,0,0,1-2.919-.836.658.658,0,1,1,.742-1.088,4.4,4.4,0,0,0,4.28.087,3.123,3.123,0,0,0,1.595-3.1.658.658,0,0,1,1.315-.06,4.439,4.439,0,0,1-2.268,4.307A5.682,5.682,0,0,1,390.18,246.886Z" transform="translate(-386.974 -241.264)" fill="#31241c"/>
  </g>
  <path id="Path_65" data-name="Path 65" d="M393.981,232.541a2.458,2.458,0,1,0,1.431-3.17A2.458,2.458,0,0,0,393.981,232.541Z" transform="translate(-48.133 -28.014)" fill="#1a191f"/>
  <path id="Path_66" data-name="Path 66" d="M377.236,233.544a2.459,2.459,0,1,0,1.433-3.166A2.461,2.461,0,0,0,377.236,233.544Z" transform="translate(-46.086 -28.137)" fill="#1a191f"/>
  <g id="Group_66" data-name="Group 66" transform="translate(328.81 202.202)">
    <path id="Path_67" data-name="Path 67" d="M377.567,232.981a.569.569,0,0,1-.3-.085l-2.4-1.469a.578.578,0,1,1,.6-.986l2.4,1.469a.578.578,0,0,1-.3,1.071Z" transform="translate(-374.592 -230.356)" fill="#1a191f"/>
  </g>
  <g id="Group_67" data-name="Group 67" transform="translate(348.622 201.068)">
    <path id="Path_68" data-name="Path 68" d="M397.742,231.959a.578.578,0,0,1-.33-1.053l2.508-1.738a.578.578,0,0,1,.658.951l-2.508,1.738A.575.575,0,0,1,397.742,231.959Z" transform="translate(-397.164 -229.065)" fill="#1a191f"/>
  </g>
  <path id="Path_69" data-name="Path 69" d="M432.325,239.116c-3.355-7.228.786-11.714-1-18.6-1.565-6.022-8.733-5.835-12.43-14.367-5.665-13.082-34.814-24.857-45.682,1.687,12.082-8.192,24.466-3.934,29.167,2.122,9.479,12.213-.248,17.387,3.411,24.651,2.666,5.291,4.413,8.856.969,16.866s1.378,15.624,1.378,15.624c11.28-1.248,24.033-2.358,35.619-4.32C443.758,243.233,435.677,246.343,432.325,239.116Z" transform="translate(-45.614 -23.454)" fill="#31241c"/>
  <path id="Path_70" data-name="Path 70" d="M377.418,359.684c-9.836.862-13.633,3.8-22.436,8.457s-10.7,5.7-8.629,6.559c-5.177.345-2.158,3.1,1.467,1.9-2.415,1.037.95,2.159,5.782.347,1.209,1.9,7.422,1.038,11.392-1.207s13.462-4.144,22.091-1.209c1.037-5.35-2.243-14.67-2.243-14.67Z" transform="translate(-41.993 -43.96)" fill="#c97440"/>
  <path id="Path_71" data-name="Path 71" d="M389.257,359.555c5.307-1.164,20.151-2.374,28.954-1.855.518,6.9-3.279,20.883-3.279,20.883l-23.474-5.18S392.625,366.027,389.257,359.555Z" transform="translate(-47.575 -43.703)" fill="#ffbc45"/>
  <g id="Group_68" data-name="Group 68" transform="translate(340.686 311.877)">
    <path id="Path_72" data-name="Path 72" d="M388.674,359.4c10.481-1.515,21.08-1.486,31.642-1.783,5.089-.145,9.968-.735,15.01-1.312,4.793-.548,10.468.492,15.076,1.887a.44.44,0,0,0,.233-.847,45.933,45.933,0,0,0-13.688-2.036,52.673,52.673,0,0,0-6.6.824,79.429,79.429,0,0,1-9.172.579c-10.934.355-21.886.273-32.739,1.841-.558.081-.32.926.233.847Z" transform="translate(-388.122 -355.301)" fill="#1f0e03"/>
  </g>
  <g id="Group_69" data-name="Group 69" transform="translate(387.984 288.535)">
    <path id="Path_73" data-name="Path 73" d="M442.01,329.262a165.227,165.227,0,0,1,1.539,21.976.439.439,0,0,0,.878,0,166.968,166.968,0,0,0-1.569-22.21c-.077-.559-.923-.319-.847.233Z" transform="translate(-442.006 -328.71)" fill="#1f0e03"/>
  </g>
  <g id="Group_70" data-name="Group 70" transform="translate(342.768 329.262)">
    <path id="Path_74" data-name="Path 74" d="M390.918,375.986c3.174-.038,6.114,1.369,9.125,2.187,3.577.97,7.079,2.186,10.654,3.166a107.976,107.976,0,0,0,22.22,3.672c11.9.688,26.3.1,35.289-8.807a.439.439,0,0,0-.621-.621c-9.393,9.314-24.832,9.325-37.158,8.383a107.616,107.616,0,0,1-21.855-4.141c-3.185-.931-6.364-1.906-9.544-2.855-2.677-.8-5.27-1.9-8.111-1.861a.439.439,0,0,0,0,.878Z" transform="translate(-390.494 -375.107)" fill="#1f0e03"/>
  </g>
  <g id="Group_71" data-name="Group 71" transform="translate(325.108 279.75)">
    <path id="Path_75" data-name="Path 75" d="M370.95,319.006c-.785,2.354-.55,4.888-.516,7.334.047,3.366.295,6.726.47,10.087.174,3.319.274,6.64.541,9.952.246,3.059,1.4,5.958,1.562,8.988.03.563.908.565.878,0-.146-2.771-1.208-5.391-1.487-8.161-.306-3.031-.4-6.084-.537-9.126-.135-3.068-.346-6.131-.473-9.2s-.574-6.69.41-9.642c.179-.539-.669-.767-.846-.233Z" transform="translate(-370.375 -318.702)" fill="#1f0e03"/>
  </g>
  <g id="Group_72" data-name="Group 72" transform="translate(337.898 249.711)">
    <path id="Path_76" data-name="Path 76" d="M386.02,284.79c-1.377,4.859-2.347,11.06,3.1,13.792,1.964.985,4.2.5,6.1-.362a15.888,15.888,0,0,0,3.594-2.567c1.113-.954,1.6.493,2.585,1.2,8.006,5.726,18.544-2.2,21.2-10.1.18-.538-.668-.767-.847-.233-2.829,8.428-14.918,16.169-21.877,7.574a.442.442,0,0,0-.621,0c-2.886,2.595-6.639,5.667-10.576,3.236-4.291-2.649-2.918-8.386-1.806-12.3a.44.44,0,0,0-.847-.233Z" transform="translate(-384.946 -284.48)" fill="#1f0e03"/>
  </g>
  <g id="Group_73" data-name="Group 73" transform="translate(310.657 324.585)">
    <path id="Path_77" data-name="Path 77" d="M354.463,378.947c2.766-.492,4.983-2.223,7.311-3.682,3.208-2.013,6.812-3.169,10.293-4.6.515-.212.29-1.063-.233-.847-2.873,1.186-5.814,2.187-8.592,3.6-3.018,1.531-5.592,4.083-9.012,4.69-.556.1-.319.944.233.847Z" transform="translate(-353.912 -369.779)" fill="#1f0e03"/>
  </g>
  <g id="Group_74" data-name="Group 74" transform="translate(304.253 323.212)">
    <path id="Path_78" data-name="Path 78" d="M347.291,378.712c6.99-2.952,13.428-7.1,20.6-9.622.53-.187.3-1.035-.233-.847-7.249,2.548-13.754,6.729-20.814,9.712-.52.219-.072.975.443.758Z" transform="translate(-346.617 -368.215)" fill="#1f0e03"/>
  </g>
  <g id="Group_75" data-name="Group 75" transform="translate(302.721 322.552)">
    <path id="Path_79" data-name="Path 79" d="M345.523,376.548c2.761-1.677,5.911-2.455,8.748-3.962,2.811-1.492,5.6-3.023,8.512-4.322.516-.231.068-.987-.443-.758-2.907,1.3-5.7,2.825-8.511,4.321-2.838,1.512-5.985,2.285-8.749,3.962a.439.439,0,0,0,.443.758Z" transform="translate(-344.871 -367.463)" fill="#1f0e03"/>
  </g>
  <g id="Group_76" data-name="Group 76" transform="translate(348.887 265.016)">
    <path id="Path_80" data-name="Path 80" d="M397.474,303.681c.294,1.558,2.5,1.5,3.213.3a1.357,1.357,0,0,0-.646-1.8,1.866,1.866,0,0,0-2.391.389c-.322.468.439.906.758.442.386-.559,2,.025,1.433.652-.431.477-1.383.513-1.52-.212-.105-.556-.951-.32-.846.233Z" transform="translate(-397.465 -301.916)" fill="#1f0e03"/>
  </g>
  <g id="Group_77" data-name="Group 77" transform="translate(347.713 272.037)">
    <path id="Path_81" data-name="Path 81" d="M396.146,311.154c-.224,1.553,1.577,1.99,2.621,1.125a1.427,1.427,0,0,0,.363-1.89,1.813,1.813,0,0,0-2.029-.316c-.537.169-.307,1.017.234.846a1.373,1.373,0,0,1,1.074-.037c.271.16-.093.65-.239.757-.32.234-1.27.407-1.175-.252.08-.554-.766-.793-.847-.233Z" transform="translate(-396.127 -309.915)" fill="#1f0e03"/>
  </g>
  <g id="Group_78" data-name="Group 78" transform="translate(347.198 279.69)">
    <path id="Path_82" data-name="Path 82" d="M395.541,320.621c.077,1.761,2.675,1.059,2.935-.271.317-1.624-2.514-2.513-2.791-.751-.087.554.759.792.847.233.106-.678,1.074-.213,1.087.313.01.415-1.179.98-1.2.477-.025-.564-.9-.565-.878,0Z" transform="translate(-395.54 -318.633)" fill="#1f0e03"/>
  </g>
  <g id="Group_79" data-name="Group 79" transform="translate(330.07 329.282)">
    <path id="Path_83" data-name="Path 83" d="M376.069,375.55a8.9,8.9,0,0,0,.535,4c.206.52,1.056.293.846-.233a8.286,8.286,0,0,1-.5-3.768c.058-.563-.821-.557-.878,0Z" transform="translate(-376.028 -375.13)" fill="#1f0e03"/>
  </g>
  <g id="Group_80" data-name="Group 80" transform="translate(340.879 315.265)">
    <path id="Path_84" data-name="Path 84" d="M388.537,360c1.638,1.152,1.768,3.434,2.23,5.211.614,2.351,1.069,5.269.029,7.566-.233.511.524.958.758.442,1.175-2.591.685-5.56.061-8.242-.484-2.079-.772-4.425-2.635-5.735-.463-.327-.9.435-.442.758Z" transform="translate(-388.342 -359.161)" fill="#1f0e03"/>
  </g>
  <g id="Group_81" data-name="Group 81" transform="translate(319.813 216.48)">
    <path id="Path_85" data-name="Path 85" d="M364.431,246.941c-1.379,10.238,13.744,10.271,20.273,9.96.564-.026.566-.9,0-.878-5.763.275-20.694.551-19.427-8.849.075-.553-.772-.792-.846-.233Z" transform="translate(-364.342 -246.622)" fill="#1f0e03"/>
  </g>
  <path id="Path_86" data-name="Path 86" d="M392.438,257.319c0,1.454-1.45,2.632-3.237,2.632s-3.234-1.179-3.234-2.632a2.981,2.981,0,0,1,3.234-2.634C390.988,254.685,392.438,255.866,392.438,257.319Z" transform="translate(-47.173 -31.127)" fill="#ffbc45"/>
  <path id="Path_87" data-name="Path 87" d="M388.132,194.224c-10.754.269-16.73,6.1-19.741,12.283a9.939,9.939,0,0,1,3.056.851c2.229-3.861,6.456-8.106,14.355-8.715,20.969-.929,29.814,15.51,30.2,24.124a2.319,2.319,0,0,0,3.884-.528C419.5,210.308,409.36,193.694,388.132,194.224Z" transform="translate(-45.025 -23.737)" fill="#ffbc45"/>
  <path id="Path_88" data-name="Path 88" d="M432.471,239.224a8.458,8.458,0,0,1-8.457,8.458h0a8.457,8.457,0,0,1-8.457-8.458v-5.869a8.456,8.456,0,0,1,8.457-8.457h0a8.457,8.457,0,0,1,8.457,8.457Z" transform="translate(-50.789 -27.487)" fill="#ffbc45"/>
  <g id="Group_82" data-name="Group 82" transform="translate(368.402 200.806)">
    <path id="Path_89" data-name="Path 89" d="M430.985,238.794a5.2,5.2,0,0,1-10.072,1.656c-.628-1.6-.27-3.866-.27-5.549,0-5.842,8.033-6.85,10.072-1.655.628,1.6.27,3.865.27,5.548a.439.439,0,0,0,.878,0c0-3.522.344-6.92-3-9.114-4.047-2.658-8.869.909-9.1,5.221-.187,3.465-.215,7.006,2.995,9.116,4.048,2.658,8.87-.911,9.1-5.223C431.894,238.228,431.015,238.231,430.985,238.794Z" transform="translate(-419.697 -228.766)" fill="#1f0e03"/>
  </g>
  <path id="Path_90" data-name="Path 90" d="M303.5,369.415h67.485c3.107,0,3.8,6.214-1.381,6.214H214.785c-4.66-9.32-25.543-66.277-27.615-71.627s-.172-11.563,8.285-11.563h59.371c6.213,0,13.117,1.032,17.431,10.527S303.5,369.415,303.5,369.415Z" transform="translate(-22.782 -35.742)" fill="#5f7e91"/>
  <path id="Path_91" data-name="Path 91" d="M379.952,375.382a4.031,4.031,0,0,0,.558-.249.286.286,0,0,0,.047-.024c2.651-1.484,1.742-5.694-.818-5.694H312.254l-.053-.114c-.031-.064-.073-.152-.131-.275-.24-.507-.707-1.5-1.368-2.9-5.791-12.254-26-55.047-29.687-63.161-4.314-9.495-11.218-10.527-17.431-10.527H258.06c6.215,0,13.118,1.032,17.433,10.527s31.239,66.449,31.239,66.449l2.331,6.045s2.909.069,7.553.169h61.742a5.563,5.563,0,0,0,.866-.068,4.028,4.028,0,0,0,.479-.118C379.784,375.422,379.875,375.408,379.952,375.382Z" transform="translate(-31.54 -35.742)" fill="#49687a"/>
  <path id="Path_92" data-name="Path 92" d="M253.7,339.747c1.7,4.213-.315,7.628-4.508,7.628s-8.976-3.415-10.679-7.628.315-7.631,4.509-7.631S252,335.533,253.7,339.747Z" transform="translate(-29.077 -40.591)" fill="none" stroke="#1f0e03" stroke-width="1"/>
  <path id="Path_93" data-name="Path 93" d="M452.978,392.7H209.523v38.592c26.727,5.69,62.747,9.8,98.219,10.25,48.561.614,98.914.062,145.236-2.19Z" transform="translate(-25.608 -47.996)" fill="#f5cdb3"/>
  <path id="Path_94" data-name="Path 94" d="M461.674,391.024a4.172,4.172,0,0,1-4.171,4.17H202.182a4.171,4.171,0,0,1-4.169-4.17h0a4.171,4.171,0,0,1,4.169-4.171H457.5a4.172,4.172,0,0,1,4.171,4.171Z" transform="translate(-24.201 -47.281)" fill="#c97440"/>
  <path id="Path_95" data-name="Path 95" d="M172.559,219.01c5.787,5.484,10.513,5.484,10.5,0s-.031-14.454-.041-19.937-4.748-9.97-10.524-9.97H151.492c-5.776,0-5.766,4.487.021,9.97S166.772,213.527,172.559,219.01Z" transform="translate(-17.987 -23.112)" fill="#ffbc45"/>
  <path id="Rectangle_87" data-name="Rectangle 87" d="M38.383,0h114.3a38.382,38.382,0,0,1,38.382,38.382v35a38.381,38.381,0,0,1-38.381,38.381H38.382A38.382,38.382,0,0,1,0,73.385v-35A38.383,38.383,0,0,1,38.383,0Z" transform="translate(101.541 64.759)" fill="#ff9b15"/>
  <text id="HELP_" data-name="HELP!" transform="translate(186.294 99.25)" fill="#fff" font-size="19" font-family="Raleway-Bold, Raleway" font-weight="700"><tspan x="0" y="0">HELP!</tspan></text>
  <rect id="Rectangle_88" data-name="Rectangle 88" width="86.259" height="5.61" transform="translate(188.284 108.629)" fill="#fff2db"/>
  <rect id="Rectangle_89" data-name="Rectangle 89" width="74.49" height="5.608" transform="translate(188.284 122.256)" fill="#fff2db"/>
  <rect id="Rectangle_90" data-name="Rectangle 90" width="49.409" height="5.608" transform="translate(188.284 135.884)" fill="#fff2db"/>
  <rect id="Rectangle_91" data-name="Rectangle 91" width="79.911" height="5.61" transform="translate(188.284 149.508)" fill="#fff2db"/>
  <g id="Group_87" data-name="Group 87" transform="translate(123.8 80.713)">
    <path id="Path_96" data-name="Path 96" d="M188.4,172.833c-2.57-6.383-11.464-10.944-16.007-10.884H157.046c-5.045.475-13.438,4.5-16.008,10.884a33.89,33.89,0,0,0,47.361,0Z" transform="translate(-141.038 -100.507)" fill="#31241c"/>
    <path id="Path_97" data-name="Path 97" d="M160.526,147.023s-1.469,12.073-2.484,18.9c-.741,4.986,17.154,6.388,17.7,1.012.475-6.375,1.021-17.181,1.021-17.181" transform="translate(-143.113 -98.683)" fill="#c97440"/>
    <path id="Path_98" data-name="Path 98" d="M160.046,152.571l.728-5.548,16.235,2.731s-.169,3.32-.4,7.483a15.536,15.536,0,0,1-16.566-4.666Z" transform="translate(-143.361 -98.683)" fill="#ab5d2d"/>
    <path id="Path_99" data-name="Path 99" d="M186.722,131.827a15.666,15.666,0,0,1-14.453,16.792h0a15.667,15.667,0,0,1-16.79-14.457l-1.237-16.522A15.663,15.663,0,0,1,168.7,100.852h0A15.665,15.665,0,0,1,185.489,115.3Z" transform="translate(-142.646 -93.034)" fill="#c97440"/>
    <g id="Group_83" data-name="Group 83" transform="translate(21.657 21.788)">
      <path id="Path_100" data-name="Path 100" d="M166.8,121.319a8.206,8.206,0,0,0,5.278-3.284c.656-.916-.856-1.784-1.5-.88a6.492,6.492,0,0,1-4.237,2.484c-1.1.233-.633,1.911.463,1.679Z" transform="translate(-165.71 -116.774)" fill="#31241c"/>
    </g>
    <g id="Group_84" data-name="Group 84" transform="translate(36.265 20.572)">
      <path id="Path_101" data-name="Path 101" d="M186.56,117.725a3.435,3.435,0,0,1-2.588-1.907c-.542-.983-2.047-.1-1.5.88A5.078,5.078,0,0,0,186.1,119.4c1.1.206,1.566-1.472.463-1.679Z" transform="translate(-182.352 -115.388)" fill="#31241c"/>
    </g>
    <g id="Group_85" data-name="Group 85" transform="translate(31.427 31.706)">
      <path id="Path_102" data-name="Path 102" d="M178.047,133.774a.658.658,0,0,1-.491-1.1l2.093-2.341-2.4-1a.658.658,0,1,1,.5-1.217l3.259,1.352a.659.659,0,0,1,.239,1.047l-2.711,3.033A.655.655,0,0,1,178.047,133.774Z" transform="translate(-176.84 -128.072)" fill="#31241c"/>
    </g>
    <g id="Group_86" data-name="Group 86" transform="translate(28.017 40.583)">
      <path id="Path_103" data-name="Path 103" d="M173.615,141.669a.658.658,0,0,1-.381-1.2c2.593-1.833,4.919-2.57,6.922-2.191a.658.658,0,1,1-.246,1.294c-1.634-.31-3.626.353-5.915,1.972A.657.657,0,0,1,173.615,141.669Z" transform="translate(-172.956 -138.186)" fill="#31241c"/>
    </g>
    <path id="Path_104" data-name="Path 104" d="M173.12,128.146a1.9,1.9,0,1,1-1.393-2.305A1.905,1.905,0,0,1,173.12,128.146Z" transform="translate(-144.5 -96.087)" fill="#1a191f"/>
    <path id="Path_105" data-name="Path 105" d="M186.091,127.373a1.9,1.9,0,1,1-1.394-2.3A1.9,1.9,0,0,1,186.091,127.373Z" transform="translate(-146.086 -95.993)" fill="#1a191f"/>
    <path id="Path_106" data-name="Path 106" d="M157.457,133.233a5.686,5.686,0,0,1-4.185,6.87h0a5.687,5.687,0,0,1-6.871-4.184l-.425-1.746a5.69,5.69,0,0,1,4.186-6.871h0a5.691,5.691,0,0,1,6.871,4.185Z" transform="translate(-141.622 -96.252)" fill="#c97440"/>
    <path id="Path_107" data-name="Path 107" d="M148.83,123.57c-1.337-3.809-7.855-19.3,1.838-19.771.6-6.082,9.058-9.291,19.619-11.363s17.147,2.875,16.344,7.821-7.287,6.752-12.433,5.281c-1.471,5.347-8.557,3.544-10.094,2.474-1.188,5.181-7.071,6.434-6.4,10.044s.968,7.285,1.1,8.021-2.941,2.173-3.609.7S151.888,122.668,148.83,123.57Z" transform="translate(-141.577 -91.952)" fill="#31241c"/>
  </g>
  <g id="Group_88" data-name="Group 88" transform="translate(159.933 143.281)">
    <path id="Path_108" data-name="Path 108" d="M182.518,216.882c6.41,1.272,2.737-20.474,2.695-23.753l-.439.439c13.794.123,27.592.159,41.386.038,9.862-.086,19.714-.339,29.578-.338,6.065,0,12.1-.224,18.154-.457,6.495-.251,12.969-.23,19.3-1.911,12.1-3.216,16.512-16.016,17.763-27.249.062-.563-.816-.556-.878,0-.929,8.337-3.456,17.473-10.162,23.027-5.053,4.183-12.5,4.715-18.766,5.018-6.243.3-12.513.568-18.763.657-19.769.284-39.555.477-59.327.432q-9.14-.02-18.282-.095a.442.442,0,0,0-.439.439c.035,2.765,2.895,23.795-1.584,22.907-.552-.11-.788.736-.233.846Z" transform="translate(-182.201 -163.231)" fill="#1f0e03"/>
  </g>
  <g id="Group_89" data-name="Group 89" transform="translate(288.004 105.706)">
    <path id="Path_109" data-name="Path 109" d="M328.374,120.849c.007,10.9.475,21.867-.269,32.755-.039.565.84.561.878,0,.743-10.888.276-21.851.269-32.755a.439.439,0,0,0-.878,0Z" transform="translate(-328.105 -120.424)" fill="#1f0e03"/>
  </g>
  <g id="Group_99" data-name="Group 99" transform="translate(430.998 167.619)">
    <path id="Rectangle_92" data-name="Rectangle 92" d="M39.792,0h118.5a39.793,39.793,0,0,1,39.793,39.793V76.081a39.793,39.793,0,0,1-39.793,39.793H39.793A39.793,39.793,0,0,1,0,76.081V39.792A39.792,39.792,0,0,1,39.792,0Z" fill="#ff9b15"/>
    <path id="Path_110" data-name="Path 110" d="M534.542,341.529c-6,5.683-10.9,5.683-10.89,0s.032-14.986.044-20.669,4.922-10.336,10.91-10.336h21.776c5.989,0,5.979,4.65-.021,10.336Z" transform="translate(-494.998 -205.571)" fill="#ff9b15"/>
    <text id="THANKS_" data-name="THANKS!" transform="translate(25.618 38.21)" fill="#fff2db" font-size="19" font-family="Raleway-Bold, Raleway" font-weight="700"><tspan x="0" y="0">THANKS!</tspan></text>
    <rect id="Rectangle_93" data-name="Rectangle 93" width="89.43" height="5.814" transform="translate(23.25 47.918)" fill="#fff2db"/>
    <rect id="Rectangle_94" data-name="Rectangle 94" width="77.228" height="5.818" transform="translate(23.25 62.044)" fill="#fff2db"/>
    <rect id="Rectangle_95" data-name="Rectangle 95" width="51.223" height="5.815" transform="translate(23.25 76.172)" fill="#fff2db"/>
    <g id="Group_95" data-name="Group 95" transform="translate(133.203 18.7)">
      <path id="Path_111" data-name="Path 111" d="M642.759,296.115c2.665-6.618,11.884-11.346,16.6-11.285h15.91c5.23.493,13.932,4.667,16.6,11.285a35.139,35.139,0,0,1-49.1,0Z" transform="translate(-642.759 -221.131)" fill="#31241c"/>
      <g id="Group_94" data-name="Group 94" transform="translate(3.358 8.059)">
        <path id="Path_112" data-name="Path 112" d="M675.787,269.356s1.523,12.516,2.575,19.595c.768,5.168-17.785,6.622-18.348,1.049-.493-6.609-1.059-17.811-1.059-17.811" transform="translate(-648.097 -227.298)" fill="#c97440"/>
        <path id="Path_113" data-name="Path 113" d="M676.541,275.108l-.753-5.752-16.831,2.833s.175,3.443.411,7.759a16.113,16.113,0,0,0,17.174-4.839Z" transform="translate(-648.097 -227.298)" fill="#ab5d2d"/>
        <path id="Path_114" data-name="Path 114" d="M646.631,253.6a16.246,16.246,0,0,0,14.985,17.409h0a16.243,16.243,0,0,0,17.406-14.988l1.282-17.13a16.239,16.239,0,0,0-14.985-17.406h0a16.236,16.236,0,0,0-17.407,14.984Z" transform="translate(-646.585 -221.442)" fill="#c97440"/>
        <g id="Group_90" data-name="Group 90" transform="translate(16.679 14.979)">
          <path id="Path_115" data-name="Path 115" d="M671.191,241.183a4.945,4.945,0,0,0-4.773-2.648c-1.1.128-1.114,1.871,0,1.742a3.259,3.259,0,0,1,3.27,1.786c.518,1,2.021.116,1.5-.88Z" transform="translate(-665.586 -238.508)" fill="#31241c"/>
        </g>
        <g id="Group_91" data-name="Group 91" transform="translate(3.163 14.296)">
          <path id="Path_116" data-name="Path 116" d="M651.665,240.609a3.73,3.73,0,0,1,3.249-1.083c1.091.264,1.555-1.416.463-1.679a5.476,5.476,0,0,0-4.943,1.531c-.775.812.454,2.046,1.231,1.232Z" transform="translate(-650.188 -237.729)" fill="#31241c"/>
        </g>
        <g id="Group_92" data-name="Group 92" transform="translate(8.441 24.837)">
          <path id="Path_117" data-name="Path 117" d="M659.671,255.6a.655.655,0,0,1-.491-.219l-2.811-3.145a.658.658,0,0,1,.239-1.046l3.379-1.4a.658.658,0,0,1,.5,1.217l-2.522,1.046,2.194,2.453a.658.658,0,0,1-.492,1.1Z" transform="translate(-656.201 -249.737)" fill="#31241c"/>
        </g>
        <g id="Group_93" data-name="Group 93" transform="translate(7.912 33.1)">
          <path id="Path_118" data-name="Path 118" d="M659.342,265.769h0c-1.8,0-3.024-1.911-3.732-5.843a.657.657,0,0,1,.176-.574.671.671,0,0,1,.569-.194,29.459,29.459,0,0,0,4.553.332c1.049,0,2.188-.043,3.483-.131a.658.658,0,0,1,.612.991C662.849,264,661,265.769,659.342,265.769Zm-2.259-5.184c.55,2.472,1.358,3.867,2.258,3.867.579,0,1.817-.511,3.87-3.706A34.472,34.472,0,0,1,657.083,260.584Z" transform="translate(-655.598 -259.151)" fill="#31241c"/>
        </g>
        <path id="Path_119" data-name="Path 119" d="M664.885,249.785a1.974,1.974,0,1,0,1.444-2.391A1.976,1.976,0,0,0,664.885,249.785Z" transform="translate(-648.814 -224.607)" fill="#1a191f"/>
        <path id="Path_120" data-name="Path 120" d="M651.437,248.985a1.975,1.975,0,1,0,1.447-2.388A1.977,1.977,0,0,0,651.437,248.985Z" transform="translate(-647.171 -224.51)" fill="#1a191f"/>
      </g>
      <path id="Path_121" data-name="Path 121" d="M679.972,255.06a5.9,5.9,0,0,0,4.337,7.123h0a5.9,5.9,0,0,0,7.124-4.34l.44-1.809a5.894,5.894,0,0,0-4.338-7.124h0a5.9,5.9,0,0,0-7.124,4.34Z" transform="translate(-647.287 -216.72)" fill="#c97440"/>
      <path id="Path_122" data-name="Path 122" d="M684.665,245.043c1.385-3.951,8.141-20.014-1.907-20.5-.625-6.308-9.39-9.634-20.34-11.782s-17.778,2.981-16.946,8.109,7.555,7,12.89,5.475c1.525,5.544,8.87,3.672,10.466,2.565,1.23,5.37,7.328,6.669,6.636,10.412s-1.005,7.553-1.145,8.317,3.049,2.251,3.745.727S681.494,244.106,684.665,245.043Z" transform="translate(-643.082 -212.261)" fill="#31241c"/>
    </g>
    <g id="Group_96" data-name="Group 96" transform="translate(162.32 90.696)">
      <path id="Path_123" data-name="Path 123" d="M676.354,316.872c12.893-.511,26.712-8.715,29.457-22.04.114-.552-.733-.787-.847-.233-2.666,12.94-16.087,20.9-28.61,21.395-.564.022-.566.9,0,.878Z" transform="translate(-675.93 -294.282)" fill="#1f0e03"/>
    </g>
    <g id="Group_97" data-name="Group 97" transform="translate(151.654 112.478)">
      <path id="Path_124" data-name="Path 124" d="M664.2,319.975c2.352.083,4.7.13,7.058.183a.439.439,0,0,0,0-.878c-2.353-.053-4.707-.1-7.058-.183-.567-.021-.564.858,0,.878Z" transform="translate(-663.779 -319.097)" fill="#1f0e03"/>
    </g>
    <g id="Group_98" data-name="Group 98" transform="translate(38.584 111.893)">
      <path id="Path_125" data-name="Path 125" d="M535.726,339.282c4.421-3.977,8.858-7.933,13.012-12.192,1.922-1.97,3.638-4.541,5.958-6.1a9.169,9.169,0,0,1,4.686-1.164c3.163-.183,6.346-.1,9.512-.144,5.742-.078,11.476-.385,17.22-.374,6.153.011,12.3.29,18.448.57,11.97.546,23.97,1.112,35.918-.119.557-.057.563-.936,0-.878-12.224,1.26-24.5.64-36.746.082-6.438-.293-12.877-.543-19.323-.532-5.75.01-11.5.333-17.247.4-3.92.043-9.38-.826-12.911,1.405-2.187,1.384-3.83,3.814-5.568,5.648-4.278,4.513-8.96,8.627-13.58,12.782-.422.378.2,1,.621.621Z" transform="translate(-534.965 -318.431)" fill="#1f0e03"/>
    </g>
  </g>
  <g id="Group_108" data-name="Group 108" transform="translate(349.934 87.475)">
    <path id="Rectangle_96" data-name="Rectangle 96" d="M20.829,0H185.972A20.829,20.829,0,0,1,206.8,20.829V32.756a20.83,20.83,0,0,1-20.83,20.83H20.829A20.829,20.829,0,0,1,0,32.757V20.829A20.829,20.829,0,0,1,20.829,0Z" fill="#f5cdb3"/>
    <g id="Group_105" data-name="Group 105" transform="translate(16.724 11.822)">
      <g id="Group_100" data-name="Group 100">
        <path id="Path_126" data-name="Path 126" d="M429.43,114.1c.641-1.3,1.69-1.3,2.331,0l2.047,4.148a5.622,5.622,0,0,0,3.771,2.74l4.578.665c1.433.208,1.756,1.206.72,2.216l-3.311,3.227a5.627,5.627,0,0,0-1.44,4.434l.782,4.557c.245,1.427-.6,2.044-1.885,1.371l-4.095-2.153a5.623,5.623,0,0,0-4.662,0l-4.093,2.151c-1.282.674-2.13.057-1.885-1.37l.781-4.557a5.623,5.623,0,0,0-1.44-4.434l-3.311-3.227c-1.037-1.01-.713-2.008.721-2.216l4.575-.667a5.625,5.625,0,0,0,3.771-2.74Z" transform="translate(-417.71 -113.124)" fill="#c97440"/>
      </g>
      <g id="Group_101" data-name="Group 101" transform="translate(36.574)">
        <path id="Path_127" data-name="Path 127" d="M471.1,114.1c.642-1.3,1.69-1.3,2.331,0l2.044,4.148a5.624,5.624,0,0,0,3.771,2.74l4.577.665c1.432.208,1.757,1.206.72,2.216l-3.31,3.227a5.623,5.623,0,0,0-1.44,4.434l.781,4.557c.246,1.427-.6,2.044-1.885,1.37L474.6,135.3a5.622,5.622,0,0,0-4.662,0l-4.1,2.153c-1.282.673-2.13.056-1.885-1.371l.781-4.557a5.623,5.623,0,0,0-1.44-4.434l-3.31-3.227c-1.037-1.01-.713-2.008.721-2.216l4.576-.667a5.628,5.628,0,0,0,3.772-2.74Z" transform="translate(-459.377 -113.124)" fill="#c97440"/>
      </g>
      <g id="Group_102" data-name="Group 102" transform="translate(73.15)">
        <path id="Path_128" data-name="Path 128" d="M512.764,114.1c.642-1.3,1.691-1.3,2.331,0l2.046,4.148a5.622,5.622,0,0,0,3.771,2.74l4.577.665c1.433.208,1.756,1.206.72,2.216l-3.31,3.227a5.627,5.627,0,0,0-1.44,4.434l.782,4.557c.245,1.427-.6,2.044-1.885,1.37l-4.094-2.151a5.619,5.619,0,0,0-4.662,0l-4.092,2.151c-1.282.674-2.13.057-1.885-1.37l.78-4.557a5.624,5.624,0,0,0-1.44-4.434l-3.309-3.227c-1.037-1.01-.713-2.008.721-2.217l4.573-.665a5.632,5.632,0,0,0,3.771-2.741Z" transform="translate(-501.045 -113.124)" fill="#c97440"/>
      </g>
      <g id="Group_103" data-name="Group 103" transform="translate(109.723)">
        <path id="Path_129" data-name="Path 129" d="M554.432,114.1c.642-1.3,1.691-1.3,2.331,0l2.045,4.148a5.622,5.622,0,0,0,3.771,2.74l4.577.665c1.432.208,1.756,1.206.72,2.216l-3.311,3.227a5.623,5.623,0,0,0-1.439,4.434l.781,4.557c.246,1.427-.6,2.044-1.885,1.37l-4.093-2.151a5.619,5.619,0,0,0-4.662,0l-4.094,2.151c-1.281.674-2.13.057-1.885-1.37l.781-4.557a5.628,5.628,0,0,0-1.44-4.434l-3.31-3.227c-1.037-1.01-.713-2.008.721-2.216l4.575-.667a5.628,5.628,0,0,0,3.772-2.74Z" transform="translate(-542.711 -113.124)" fill="#c97440"/>
      </g>
      <g id="Group_104" data-name="Group 104" transform="translate(146.299)">
        <path id="Path_130" data-name="Path 130" d="M596.1,114.1c.642-1.3,1.691-1.3,2.332,0l2.047,4.148a5.626,5.626,0,0,0,3.772,2.74l4.576.665c1.433.208,1.757,1.206.721,2.216l-3.313,3.227a5.623,5.623,0,0,0-1.44,4.434l.781,4.557c.246,1.427-.6,2.044-1.885,1.371l-4.095-2.153a5.622,5.622,0,0,0-4.662,0l-4.091,2.151c-1.282.674-2.13.057-1.885-1.37l.782-4.557a5.627,5.627,0,0,0-1.44-4.434l-3.311-3.227c-1.037-1.01-.713-2.008.721-2.217l4.573-.665a5.632,5.632,0,0,0,3.772-2.741Z" transform="translate(-584.379 -113.124)" fill="#c97440"/>
      </g>
    </g>
    <g id="Group_106" data-name="Group 106" transform="translate(91.064 49.701)">
      <path id="Path_131" data-name="Path 131" d="M502.827,157.476c2.888-.033,5.771-.288,8.659-.321a.439.439,0,0,0,0-.878c-2.888.033-5.771.288-8.659.321a.439.439,0,0,0,0,.878Z" transform="translate(-502.402 -156.277)" fill="#1f0e03"/>
    </g>
    <g id="Group_107" data-name="Group 107" transform="translate(103.745 37.846)">
      <path id="Path_132" data-name="Path 132" d="M517.273,155.5c10.321-.232,20.642.228,30.962.061,5.15-.084,10.258-.565,15.4-.818,5.4-.265,10.814-.174,16.216-.034,5.161.133,10.318.334,15.481.41,3.56.053,7.179.224,10.683-.534,5.733-1.239,8.171-5.881,8.552-11.4.04-.565-.839-.562-.878,0-.212,3.061-.921,6.07-3.2,8.261-2.073,1.994-5.195,2.532-7.943,2.747a119.666,119.666,0,0,1-12.384-.063c-4.865-.125-9.728-.312-14.595-.4-9.714-.169-19.344.846-29.048.971-9.748.126-19.494-.3-29.242-.085a.439.439,0,0,0,0,.878Z" transform="translate(-516.848 -142.77)" fill="#1f0e03"/>
    </g>
  </g>
  <g id="Group_111" data-name="Group 111" transform="translate(39.037 214.624)">
    <path id="Rectangle_97" data-name="Rectangle 97" d="M20.828,0H87.972A20.829,20.829,0,0,1,108.8,20.829V37.007A20.829,20.829,0,0,1,87.972,57.836H20.829A20.829,20.829,0,0,1,0,37.007V20.828A20.828,20.828,0,0,1,20.828,0Z" fill="#f5cdb3"/>
    <text id="_24_7" data-name="24/7" transform="translate(20.531 35.858)" fill="#c97440" font-size="27" font-family="Raleway-Bold, Raleway" font-weight="700"><tspan x="0" y="0">24/7</tspan></text>
    <g id="Group_109" data-name="Group 109" transform="translate(62.149 49.24)">
      <path id="Path_133" data-name="Path 133" d="M115.821,306.052c12.517-3.064,26.47,3.094,37.874-4.614.466-.315.028-1.076-.443-.758-11.266,7.615-25.261,1.489-37.664,4.526-.55.134-.317.981.233.846Z" transform="translate(-115.274 -300.604)" fill="#1f0e03"/>
    </g>
    <g id="Group_110" data-name="Group 110" transform="translate(102.779 21.85)">
      <path id="Path_134" data-name="Path 134" d="M163.5,269.82c.194,1.887.1,3.774.356,5.659a44.312,44.312,0,0,1,.6,6.5c-.041,4.176-.393,8.621-2.819,12.162-.32.468.441.907.758.442,2.13-3.112,2.668-6.855,2.876-10.545a29.867,29.867,0,0,0-.11-5.748c-.392-2.833-.492-5.635-.782-8.467-.057-.557-.936-.564-.878,0Z" transform="translate(-161.562 -269.4)" fill="#1f0e03"/>
    </g>
  </g>
</svg>
