
<svg xmlns="http://www.w3.org/2000/svg" width="137" height="122.335" viewBox="0 0 137 122.335">
  <g id="Group_54" data-name="Group 54" transform="translate(-1247 -1946)">
    <g id="Group_21" data-name="Group 21" transform="translate(1333.369 2020.237)">
      <g id="Group_20" data-name="Group 20">
        <path id="Path_13" data-name="Path 13" d="M32.858,26.294,19.614,13.05,13.93,18.734,27.174,31.978a4,4,0,0,0,5.684,0A4.046,4.046,0,0,0,32.858,26.294Z" transform="translate(16.607 14.933)" fill="#fd8524"/>
        <path id="Path_14" data-name="Path 14" d="M43.05,22.419a9.394,9.394,0,0,0,9.384-9.384,9.263,9.263,0,0,0-1.1-4.29L44.1,15.984,40.1,11.989,47.34,4.751a9.263,9.263,0,0,0-4.29-1.1,9.394,9.394,0,0,0-9.384,9.384,9.143,9.143,0,0,0,.563,3.11L29.27,21.1,24.5,16.333h0a2.67,2.67,0,0,0,0-3.78l-1.9-1.9,5.684-5.684a8.042,8.042,0,0,0-11.368,0L9.35,12.552a2.67,2.67,0,0,0,0,3.78l1.9,1.9H4.444A1.8,1.8,0,0,0,3.1,18.8a1.877,1.877,0,0,0,0,2.681l6.81,6.81a1.877,1.877,0,0,0,2.681,0,1.909,1.909,0,0,0,.563-1.341V20.14l1.877,1.877a2.67,2.67,0,0,0,3.78,0l4.772,4.772L6.562,43.813a4,4,0,0,0,0,5.684h0a4,4,0,0,0,5.684,0L39.913,21.855A9.419,9.419,0,0,0,43.05,22.419Z" transform="translate(-2.54 -2.613)" fill="#fd8524"/>
      </g>
    </g>
    <g id="roofing_black_24dp" transform="translate(1247 1946)">
      <rect id="Rectangle_114" data-name="Rectangle 114" width="108" height="108" fill="none"/>
      <path id="Path_45" data-name="Path 45" d="M51.175,70.057H42.234V61.116h8.941Zm8.941-17.882H33.293V79H60.116V52.175ZM78,31.164h0V7.47H64.587V19.094h0L46.7,3,2,43.234H15.411L46.7,15.026,78,43.234H91.41Z" transform="translate(6.941 10.411)" fill="#fd8524"/>
    </g>
  </g>
</svg>
