<svg xmlns="http://www.w3.org/2000/svg" width="359.018" height="59.018" viewBox="0 0 359.018 59.018">
  <g id="Group_12" data-name="Group 12" transform="translate(-771 -12582)">
    <g id="star_black_24dp_1_" data-name="star_black_24dp (1)" transform="translate(771 12582)">
      <path id="Path_18" data-name="Path 18" d="M0,0H59.018V59.018H0Z" fill="none"/>
      <path id="Path_19" data-name="Path 19" d="M0,0H59.018V59.018H0Z" fill="none"/>
      <path id="Path_20" data-name="Path 20" d="M26.591,39.55l15.2,9.172L37.755,31.435,51.181,19.8,33.5,18.3,26.591,2l-6.91,16.3L2,19.8,15.426,31.435,11.394,48.722Z" transform="translate(2.918 2.918)" fill="#fb0"/>
    </g>
    <g id="star_black_24dp_1_2" data-name="star_black_24dp (1)" transform="translate(846 12582)">
      <path id="Path_18-2" data-name="Path 18" d="M0,0H59.018V59.018H0Z" fill="none"/>
      <path id="Path_19-2" data-name="Path 19" d="M0,0H59.018V59.018H0Z" fill="none"/>
      <path id="Path_20-2" data-name="Path 20" d="M26.591,39.55l15.2,9.172L37.755,31.435,51.181,19.8,33.5,18.3,26.591,2l-6.91,16.3L2,19.8,15.426,31.435,11.394,48.722Z" transform="translate(2.918 2.918)" fill="#fb0"/>
    </g>
    <g id="star_black_24dp_1_3" data-name="star_black_24dp (1)" transform="translate(996 12582)">
      <path id="Path_18-3" data-name="Path 18" d="M0,0H59.018V59.018H0Z" fill="none"/>
      <path id="Path_19-3" data-name="Path 19" d="M0,0H59.018V59.018H0Z" fill="none"/>
      <path id="Path_20-3" data-name="Path 20" d="M26.591,39.55l15.2,9.172L37.755,31.435,51.181,19.8,33.5,18.3,26.591,2l-6.91,16.3L2,19.8,15.426,31.435,11.394,48.722Z" transform="translate(2.918 2.918)" fill="#fb0"/>
    </g>
    <g id="star_black_24dp_1_4" data-name="star_black_24dp (1)" transform="translate(921 12582)">
      <path id="Path_18-4" data-name="Path 18" d="M0,0H59.018V59.018H0Z" fill="none"/>
      <path id="Path_19-4" data-name="Path 19" d="M0,0H59.018V59.018H0Z" fill="none"/>
      <path id="Path_20-4" data-name="Path 20" d="M26.591,39.55l15.2,9.172L37.755,31.435,51.181,19.8,33.5,18.3,26.591,2l-6.91,16.3L2,19.8,15.426,31.435,11.394,48.722Z" transform="translate(2.918 2.918)" fill="#fb0"/>
    </g>
    <g id="star_black_24dp_1_5" data-name="star_black_24dp (1)" transform="translate(1071 12582)">
      <path id="Path_18-5" data-name="Path 18" d="M0,0H59.018V59.018H0Z" fill="none"/>
      <path id="Path_19-5" data-name="Path 19" d="M0,0H59.018V59.018H0Z" fill="none"/>
      <path id="Path_20-5" data-name="Path 20" d="M26.591,39.55l15.2,9.172L37.755,31.435,51.181,19.8,33.5,18.3,26.591,2l-6.91,16.3L2,19.8,15.426,31.435,11.394,48.722Z" transform="translate(2.918 2.918)" fill="#fb0"/>
    </g>
  </g>
</svg>
