<svg id="extension_black_24dp_1_" data-name="extension_black_24dp (1)" xmlns="http://www.w3.org/2000/svg" width="58.866" height="58.866" viewBox="0 0 58.866 58.866">
  <path id="Path_26" data-name="Path 26" d="M0,0H58.866V58.866H0Z" fill="none"/>
  <path id="Path_27" data-name="Path 27" d="M22.848,7.406a1.214,1.214,0,0,1,1.226,1.226v4.906H38.791V28.254H43.7a1.226,1.226,0,1,1,0,2.453H38.791V45.423h-5.2a11.522,11.522,0,0,0-21.486,0h-5.2v-5.2A11.529,11.529,0,0,0,6.93,18.737l-.025-5.2H21.622V8.632a1.214,1.214,0,0,1,1.226-1.226m0-4.906a6.134,6.134,0,0,0-6.132,6.132H6.906a4.9,4.9,0,0,0-4.881,4.906v9.32h.711a6.622,6.622,0,1,1,0,13.245H2v9.32a4.92,4.92,0,0,0,4.906,4.906h9.32v-.736a6.622,6.622,0,0,1,13.245,0v.736h9.32A4.92,4.92,0,0,0,43.7,45.423V35.612a6.132,6.132,0,1,0,0-12.264V13.537a4.92,4.92,0,0,0-4.906-4.906H28.98A6.134,6.134,0,0,0,22.848,2.5Z" transform="translate(2.906 3.632)" fill="#858585"/>
</svg>
